ISO-10303-21;
HEADER;
/* Generated by software containing ST-Developer
 * from STEP Tools, Inc. (www.steptools.com) 
 */
/* OPTION: using custom schema-name function */

FILE_DESCRIPTION(
/* description */ (''),
/* implementation_level */ '2;1');

FILE_NAME(
/* name */ 'Drone Wing Chassis - Candilever.stp',
/* time_stamp */ '2026-08-01T11:26:40+05:30',
/* author */ (''),
/* organization */ (''),
/* preprocessor_version */ 'ST-DEVELOPER v20.1',
/* originating_system */ 'SIEMENS PLM Software NX2606.3002',
/* authorisation */ '');

FILE_SCHEMA (('AUTOMOTIVE_DESIGN { 1 0 10303 214 3 1 1 1 }'));
ENDSEC;

DATA;
#10=SHAPE_REPRESENTATION_RELATIONSHIP('None',
'relationship between Drone Wing Chassis - Candilever-None and Drone W
ing Chassis - Candilever-None',#22,#11);
#11=ADVANCED_BREP_SHAPE_REPRESENTATION(
'Drone Wing Chassis - Candilever-None',(#32),#1257);
#12=SHAPE_DEFINITION_REPRESENTATION(#13,#22);
#13=PRODUCT_DEFINITION_SHAPE('','',#14);
#14=PRODUCT_DEFINITION(' ','',#16,#15);
#15=PRODUCT_DEFINITION_CONTEXT('part definition',#21,'design');
#16=PRODUCT_DEFINITION_FORMATION_WITH_SPECIFIED_SOURCE(' ',' ',#18,
 .NOT_KNOWN.);
#17=PRODUCT_RELATED_PRODUCT_CATEGORY('part','',(#18));
#18=PRODUCT('Drone Wing Chassis - Candilever',
'Drone Wing Chassis - Candilever',' ',(#19));
#19=PRODUCT_CONTEXT(' ',#21,'mechanical');
#20=APPLICATION_PROTOCOL_DEFINITION('international standard',
'automotive_design',2010,#21);
#21=APPLICATION_CONTEXT(
'core data for automotive mechanical design processes');
#22=SHAPE_REPRESENTATION('Drone Wing Chassis - Candilever-None',(#438),
#1257);
#23=PRESENTATION_LAYER_ASSIGNMENT('1','Layer 1',(#32));
#24=STYLED_ITEM('',(#25),#32);
#25=PRESENTATION_STYLE_ASSIGNMENT((#26));
#26=SURFACE_STYLE_USAGE(.BOTH.,#27);
#27=SURFACE_SIDE_STYLE('',(#28));
#28=SURFACE_STYLE_FILL_AREA(#29);
#29=FILL_AREA_STYLE('',(#30));
#30=FILL_AREA_STYLE_COLOUR('',#31);
#31=COLOUR_RGB('medium steel',0.611764705882353,0.658823529411765,0.670588235294118);
#32=MANIFOLD_SOLID_BREP('',#33);
#33=CLOSED_SHELL('',(#71,#72,#73,#74,#75,#76,#77,#78,#79,#80,#81,#82,#83,
#84,#85,#86,#87,#88,#89,#90,#91,#92,#93,#94,#95,#96));
#34=(
BOUNDED_SURFACE()
B_SPLINE_SURFACE(3,2,((#1009,#1010,#1011),(#1012,#1013,#1014),(#1015,#1016,
#1017),(#1018,#1019,#1020),(#1021,#1022,#1023),(#1024,#1025,#1026),(#1027,
#1028,#1029),(#1030,#1031,#1032),(#1033,#1034,#1035),(#1036,#1037,#1038),
(#1039,#1040,#1041),(#1042,#1043,#1044),(#1045,#1046,#1047),(#1048,#1049,
#1050)),.UNSPECIFIED.,.F.,.F.,.F.)
B_SPLINE_SURFACE_WITH_KNOTS((4,2,2,2,2,2,4),(3,3),(0.,0.25,0.375,0.5,0.625,
0.75,1.),(0.,1.),.UNSPECIFIED.)
GEOMETRIC_REPRESENTATION_ITEM()
RATIONAL_B_SPLINE_SURFACE(((1.,0.795822425754215,1.),(1.,0.842272368419789,
1.),(1.,0.889183018969719,1.),(1.,0.940688260605058,1.),(1.,0.955034670451411,
1.),(1.,0.97638266023944,1.),(1.,0.983222182606419,1.),(1.,0.98316177601978,
1.),(1.,0.976274779700902,1.),(1.,0.955017888701755,1.),(1.,0.940586131975618,
1.),(1.,0.889227992079833,1.),(1.,0.842297723070509,1.),(1.,0.795822425754205,
1.)))
REPRESENTATION_ITEM('')
SURFACE()
);
#35=(
BOUNDED_SURFACE()
B_SPLINE_SURFACE(3,2,((#1052,#1053,#1054),(#1055,#1056,#1057),(#1058,#1059,
#1060),(#1061,#1062,#1063),(#1064,#1065,#1066),(#1067,#1068,#1069)),
 .UNSPECIFIED.,.F.,.F.,.F.)
B_SPLINE_SURFACE_WITH_KNOTS((4,2,4),(3,3),(0.,0.5,1.),(0.,1.),
 .UNSPECIFIED.)
GEOMETRIC_REPRESENTATION_ITEM()
RATIONAL_B_SPLINE_SURFACE(((1.,0.795822425754215,1.),(1.,0.752241115774865,
1.),(1.,0.710199689626943,1.),(1.,0.704113421601315,1.),(1.,0.743119179442692,
1.),(1.,0.795822425754211,1.)))
REPRESENTATION_ITEM('')
SURFACE()
);
#36=(
BOUNDED_SURFACE()
B_SPLINE_SURFACE(3,2,((#1071,#1072,#1073),(#1074,#1075,#1076),(#1077,#1078,
#1079),(#1080,#1081,#1082),(#1083,#1084,#1085),(#1086,#1087,#1088)),
 .UNSPECIFIED.,.F.,.F.,.F.)
B_SPLINE_SURFACE_WITH_KNOTS((4,2,4),(3,3),(0.,0.5,1.),(0.,1.),
 .UNSPECIFIED.)
GEOMETRIC_REPRESENTATION_ITEM()
RATIONAL_B_SPLINE_SURFACE(((1.,0.795822425754214,1.),(1.,0.743486679528032,
1.),(1.,0.70428856112704,1.),(1.,0.709978690725831,1.),(1.,0.751935798087712,
1.),(1.,0.795822425754212,1.)))
REPRESENTATION_ITEM('')
SURFACE()
);
#37=(
BOUNDED_SURFACE()
B_SPLINE_SURFACE(3,2,((#1089,#1090,#1091),(#1092,#1093,#1094),(#1095,#1096,
#1097),(#1098,#1099,#1100),(#1101,#1102,#1103),(#1104,#1105,#1106),(#1107,
#1108,#1109),(#1110,#1111,#1112),(#1113,#1114,#1115),(#1116,#1117,#1118),
(#1119,#1120,#1121),(#1122,#1123,#1124),(#1125,#1126,#1127),(#1128,#1129,
#1130)),.UNSPECIFIED.,.F.,.F.,.F.)
B_SPLINE_SURFACE_WITH_KNOTS((4,2,2,2,2,2,4),(3,3),(0.,0.25,0.375,0.5,0.625,
0.75,1.),(0.,1.),.UNSPECIFIED.)
GEOMETRIC_REPRESENTATION_ITEM()
RATIONAL_B_SPLINE_SURFACE(((1.,0.795822425754214,1.),(1.,0.842272368420489,
1.),(1.,0.889183018968787,1.),(1.,0.940688260605525,1.),(1.,0.95503467045143,
1.),(1.,0.976382660239421,1.),(1.,0.983222182606837,1.),(1.,0.983161776019363,
1.),(1.,0.976274779701296,1.),(1.,0.955017888701361,1.),(1.,0.940586131975096,
1.),(1.,0.889227992080872,1.),(1.,0.842297723069729,1.),(1.,0.795822425754205,
1.)))
REPRESENTATION_ITEM('')
SURFACE()
);
#38=(
BOUNDED_SURFACE()
B_SPLINE_SURFACE(3,2,((#1133,#1134,#1135),(#1136,#1137,#1138),(#1139,#1140,
#1141),(#1142,#1143,#1144),(#1145,#1146,#1147),(#1148,#1149,#1150),(#1151,
#1152,#1153),(#1154,#1155,#1156),(#1157,#1158,#1159),(#1160,#1161,#1162),
(#1163,#1164,#1165),(#1166,#1167,#1168),(#1169,#1170,#1171),(#1172,#1173,
#1174)),.UNSPECIFIED.,.F.,.F.,.F.)
B_SPLINE_SURFACE_WITH_KNOTS((4,2,2,2,2,2,4),(3,3),(0.,0.25,0.375,0.5,0.625,
0.75,1.),(0.,1.),.UNSPECIFIED.)
GEOMETRIC_REPRESENTATION_ITEM()
RATIONAL_B_SPLINE_SURFACE(((1.,0.795822425754222,1.),(1.,0.842272368420323,
1.),(1.,0.889183018969014,1.),(1.,0.940688260605415,1.),(1.,0.955034670451432,
1.),(1.,0.976382660239423,1.),(1.,0.983222182606629,1.),(1.,0.983161776019573,
1.),(1.,0.976274779701091,1.),(1.,0.95501788870157,1.),(1.,0.94058613197538,
1.),(1.,0.889227992080321,1.),(1.,0.842297723070151,1.),(1.,0.795822425754218,
1.)))
REPRESENTATION_ITEM('')
SURFACE()
);
#39=(
BOUNDED_SURFACE()
B_SPLINE_SURFACE(3,2,((#1176,#1177,#1178),(#1179,#1180,#1181),(#1182,#1183,
#1184),(#1185,#1186,#1187),(#1188,#1189,#1190),(#1191,#1192,#1193)),
 .UNSPECIFIED.,.F.,.F.,.F.)
B_SPLINE_SURFACE_WITH_KNOTS((4,2,4),(3,3),(0.,0.5,1.),(0.,1.),
 .UNSPECIFIED.)
GEOMETRIC_REPRESENTATION_ITEM()
RATIONAL_B_SPLINE_SURFACE(((1.,0.795822425754222,1.),(1.,0.743486679529343,
1.),(1.,0.704288561125314,1.),(1.,0.709978690727547,1.),(1.,0.751935798086432,
1.),(1.,0.795822425754221,1.)))
REPRESENTATION_ITEM('')
SURFACE()
);
#40=(
BOUNDED_SURFACE()
B_SPLINE_SURFACE(3,2,((#1195,#1196,#1197),(#1198,#1199,#1200),(#1201,#1202,
#1203),(#1204,#1205,#1206),(#1207,#1208,#1209),(#1210,#1211,#1212)),
 .UNSPECIFIED.,.F.,.F.,.F.)
B_SPLINE_SURFACE_WITH_KNOTS((4,2,4),(3,3),(0.,0.5,1.),(0.,1.),
 .UNSPECIFIED.)
GEOMETRIC_REPRESENTATION_ITEM()
RATIONAL_B_SPLINE_SURFACE(((1.,0.795822425754223,1.),(1.,0.752241115779951,
1.),(1.,0.710199689620203,1.),(1.,0.704113421608045,1.),(1.,0.743119179437643,
1.),(1.,0.795822425754219,1.)))
REPRESENTATION_ITEM('')
SURFACE()
);
#41=(
BOUNDED_SURFACE()
B_SPLINE_SURFACE(3,2,((#1213,#1214,#1215),(#1216,#1217,#1218),(#1219,#1220,
#1221),(#1222,#1223,#1224),(#1225,#1226,#1227),(#1228,#1229,#1230),(#1231,
#1232,#1233),(#1234,#1235,#1236),(#1237,#1238,#1239),(#1240,#1241,#1242),
(#1243,#1244,#1245),(#1246,#1247,#1248),(#1249,#1250,#1251),(#1252,#1253,
#1254)),.UNSPECIFIED.,.F.,.F.,.F.)
B_SPLINE_SURFACE_WITH_KNOTS((4,2,2,2,2,2,4),(3,3),(0.,0.25,0.375,0.5,0.625,
0.75,1.),(0.,1.),.UNSPECIFIED.)
GEOMETRIC_REPRESENTATION_ITEM()
RATIONAL_B_SPLINE_SURFACE(((1.,0.795822425754223,1.),(1.,0.842272368420378,
1.),(1.,0.88918301896894,1.),(1.,0.940688260605452,1.),(1.,0.955034670451412,
1.),(1.,0.97638266023944,1.),(1.,0.983222182606438,1.),(1.,0.983161776019761,
1.),(1.,0.976274779701052,1.),(1.,0.955017888701606,1.),(1.,0.940586131975229,
1.),(1.,0.889227992080617,1.),(1.,0.842297723069928,1.),(1.,0.795822425754219,
1.)))
REPRESENTATION_ITEM('')
SURFACE()
);
#42=TOROIDAL_SURFACE('',#460,12.5,3.);
#43=TOROIDAL_SURFACE('',#467,12.5,3.);
#44=ELLIPSE('',#449,3.98787278349938,3.);
#45=ELLIPSE('',#450,3.98787278349938,3.);
#46=PLANE('',#445);
#47=PLANE('',#446);
#48=PLANE('',#447);
#49=PLANE('',#448);
#50=PLANE('',#451);
#51=PLANE('',#452);
#52=PLANE('',#453);
#53=PLANE('',#476);
#54=FACE_OUTER_BOUND('',#186,.T.);
#55=FACE_OUTER_BOUND('',#191,.T.);
#56=FACE_OUTER_BOUND('',#195,.T.);
#57=FACE_OUTER_BOUND('',#196,.T.);
#58=FACE_OUTER_BOUND('',#197,.T.);
#59=FACE_OUTER_BOUND('',#198,.T.);
#60=FACE_OUTER_BOUND('',#203,.T.);
#61=FACE_OUTER_BOUND('',#204,.T.);
#62=FACE_OUTER_BOUND('',#209,.T.);
#63=FACE_OUTER_BOUND('',#210,.T.);
#64=FACE_OUTER_BOUND('',#211,.T.);
#65=FACE_OUTER_BOUND('',#212,.T.);
#66=FACE_OUTER_BOUND('',#213,.T.);
#67=FACE_OUTER_BOUND('',#214,.T.);
#68=FACE_OUTER_BOUND('',#215,.T.);
#69=FACE_OUTER_BOUND('',#216,.T.);
#70=FACE_OUTER_BOUND('',#217,.T.);
#71=ADVANCED_FACE('',(#163,#164),#97,.F.);
#72=ADVANCED_FACE('',(#165,#166),#98,.F.);
#73=ADVANCED_FACE('',(#54),#46,.F.);
#74=ADVANCED_FACE('',(#167,#168),#47,.F.);
#75=ADVANCED_FACE('',(#169,#170),#48,.F.);
#76=ADVANCED_FACE('',(#55),#49,.F.);
#77=ADVANCED_FACE('',(#171,#172,#173),#50,.T.);
#78=ADVANCED_FACE('',(#56),#51,.F.);
#79=ADVANCED_FACE('',(#57),#52,.F.);
#80=ADVANCED_FACE('',(#58),#99,.F.);
#81=ADVANCED_FACE('',(#59),#100,.F.);
#82=ADVANCED_FACE('',(#174,#175),#101,.F.);
#83=ADVANCED_FACE('',(#176,#177),#42,.F.);
#84=ADVANCED_FACE('',(#60),#102,.F.);
#85=ADVANCED_FACE('',(#61),#103,.F.);
#86=ADVANCED_FACE('',(#178,#179),#104,.F.);
#87=ADVANCED_FACE('',(#180,#181),#43,.F.);
#88=ADVANCED_FACE('',(#62),#34,.T.);
#89=ADVANCED_FACE('',(#63),#35,.T.);
#90=ADVANCED_FACE('',(#64),#36,.T.);
#91=ADVANCED_FACE('',(#65),#37,.T.);
#92=ADVANCED_FACE('',(#66),#38,.T.);
#93=ADVANCED_FACE('',(#67),#39,.T.);
#94=ADVANCED_FACE('',(#68),#40,.T.);
#95=ADVANCED_FACE('',(#69),#41,.T.);
#96=ADVANCED_FACE('',(#70),#53,.F.);
#97=CYLINDRICAL_SURFACE('',#441,3.25);
#98=CYLINDRICAL_SURFACE('',#444,3.25);
#99=CYLINDRICAL_SURFACE('',#455,3.);
#100=CYLINDRICAL_SURFACE('',#457,3.);
#101=CYLINDRICAL_SURFACE('',#459,3.);
#102=CYLINDRICAL_SURFACE('',#462,3.);
#103=CYLINDRICAL_SURFACE('',#464,3.);
#104=CYLINDRICAL_SURFACE('',#466,3.);
#105=LINE('',#671,#125);
#106=LINE('',#675,#126);
#107=LINE('',#772,#127);
#108=LINE('',#776,#128);
#109=LINE('',#778,#129);
#110=LINE('',#781,#130);
#111=LINE('',#783,#131);
#112=LINE('',#785,#132);
#113=LINE('',#787,#133);
#114=LINE('',#788,#134);
#115=LINE('',#789,#135);
#116=LINE('',#791,#136);
#117=LINE('',#793,#137);
#118=LINE('',#795,#138);
#119=LINE('',#796,#139);
#120=LINE('',#797,#140);
#121=LINE('',#799,#141);
#122=LINE('',#801,#142);
#123=LINE('',#803,#143);
#124=LINE('',#805,#144);
#125=VECTOR('',#481,1.);
#126=VECTOR('',#484,1.);
#127=VECTOR('',#489,1.);
#128=VECTOR('',#492,1.);
#129=VECTOR('',#495,1.);
#130=VECTOR('',#496,1.);
#131=VECTOR('',#497,1.);
#132=VECTOR('',#498,1.);
#133=VECTOR('',#501,1.);
#134=VECTOR('',#502,1.);
#135=VECTOR('',#503,1.);
#136=VECTOR('',#504,1.);
#137=VECTOR('',#505,1.);
#138=VECTOR('',#508,1.);
#139=VECTOR('',#509,1.);
#140=VECTOR('',#510,1.);
#141=VECTOR('',#511,1.);
#142=VECTOR('',#512,1.);
#143=VECTOR('',#515,1.);
#144=VECTOR('',#518,1.);
#145=CIRCLE('',#439,3.25);
#146=CIRCLE('',#440,3.25);
#147=CIRCLE('',#442,3.25);
#148=CIRCLE('',#443,3.25);
#149=CIRCLE('',#454,3.);
#150=CIRCLE('',#456,3.);
#151=CIRCLE('',#458,3.);
#152=CIRCLE('',#461,3.);
#153=CIRCLE('',#463,3.);
#154=CIRCLE('',#465,3.);
#155=CIRCLE('',#468,0.5);
#156=CIRCLE('',#469,0.5);
#157=CIRCLE('',#470,0.5);
#158=CIRCLE('',#471,0.5);
#159=CIRCLE('',#472,0.5);
#160=CIRCLE('',#473,0.5);
#161=CIRCLE('',#474,0.5);
#162=CIRCLE('',#475,0.5);
#163=FACE_BOUND('',#182,.T.);
#164=FACE_BOUND('',#183,.T.);
#165=FACE_BOUND('',#184,.T.);
#166=FACE_BOUND('',#185,.T.);
#167=FACE_BOUND('',#187,.T.);
#168=FACE_BOUND('',#188,.T.);
#169=FACE_BOUND('',#189,.T.);
#170=FACE_BOUND('',#190,.T.);
#171=FACE_BOUND('',#192,.T.);
#172=FACE_BOUND('',#193,.T.);
#173=FACE_BOUND('',#194,.T.);
#174=FACE_BOUND('',#199,.T.);
#175=FACE_BOUND('',#200,.T.);
#176=FACE_BOUND('',#201,.T.);
#177=FACE_BOUND('',#202,.T.);
#178=FACE_BOUND('',#205,.T.);
#179=FACE_BOUND('',#206,.T.);
#180=FACE_BOUND('',#207,.T.);
#181=FACE_BOUND('',#208,.T.);
#182=EDGE_LOOP('',(#218,#219,#220,#221));
#183=EDGE_LOOP('',(#222,#223,#224,#225));
#184=EDGE_LOOP('',(#226,#227,#228,#229));
#185=EDGE_LOOP('',(#230,#231,#232,#233));
#186=EDGE_LOOP('',(#234,#235,#236,#237));
#187=EDGE_LOOP('',(#238,#239,#240,#241));
#188=EDGE_LOOP('',(#242,#243,#244,#245));
#189=EDGE_LOOP('',(#246,#247,#248,#249));
#190=EDGE_LOOP('',(#250,#251,#252,#253));
#191=EDGE_LOOP('',(#254,#255,#256,#257));
#192=EDGE_LOOP('',(#258,#259,#260,#261));
#193=EDGE_LOOP('',(#262));
#194=EDGE_LOOP('',(#263));
#195=EDGE_LOOP('',(#264,#265,#266,#267));
#196=EDGE_LOOP('',(#268,#269,#270,#271));
#197=EDGE_LOOP('',(#272,#273));
#198=EDGE_LOOP('',(#274,#275));
#199=EDGE_LOOP('',(#276));
#200=EDGE_LOOP('',(#277));
#201=EDGE_LOOP('',(#278,#279,#280,#281));
#202=EDGE_LOOP('',(#282));
#203=EDGE_LOOP('',(#283,#284));
#204=EDGE_LOOP('',(#285,#286));
#205=EDGE_LOOP('',(#287));
#206=EDGE_LOOP('',(#288));
#207=EDGE_LOOP('',(#289,#290,#291,#292));
#208=EDGE_LOOP('',(#293));
#209=EDGE_LOOP('',(#294,#295,#296,#297));
#210=EDGE_LOOP('',(#298,#299,#300,#301));
#211=EDGE_LOOP('',(#302,#303,#304,#305));
#212=EDGE_LOOP('',(#306,#307,#308,#309));
#213=EDGE_LOOP('',(#310,#311,#312,#313));
#214=EDGE_LOOP('',(#314,#315,#316,#317));
#215=EDGE_LOOP('',(#318,#319,#320,#321));
#216=EDGE_LOOP('',(#322,#323,#324,#325));
#217=EDGE_LOOP('',(#326,#327,#328,#329));
#218=ORIENTED_EDGE('',*,*,#366,.T.);
#219=ORIENTED_EDGE('',*,*,#367,.T.);
#220=ORIENTED_EDGE('',*,*,#368,.T.);
#221=ORIENTED_EDGE('',*,*,#369,.T.);
#222=ORIENTED_EDGE('',*,*,#370,.T.);
#223=ORIENTED_EDGE('',*,*,#371,.F.);
#224=ORIENTED_EDGE('',*,*,#372,.T.);
#225=ORIENTED_EDGE('',*,*,#373,.T.);
#226=ORIENTED_EDGE('',*,*,#374,.T.);
#227=ORIENTED_EDGE('',*,*,#375,.T.);
#228=ORIENTED_EDGE('',*,*,#376,.T.);
#229=ORIENTED_EDGE('',*,*,#377,.T.);
#230=ORIENTED_EDGE('',*,*,#378,.T.);
#231=ORIENTED_EDGE('',*,*,#379,.F.);
#232=ORIENTED_EDGE('',*,*,#380,.T.);
#233=ORIENTED_EDGE('',*,*,#381,.T.);
#234=ORIENTED_EDGE('',*,*,#382,.T.);
#235=ORIENTED_EDGE('',*,*,#383,.F.);
#236=ORIENTED_EDGE('',*,*,#384,.F.);
#237=ORIENTED_EDGE('',*,*,#385,.T.);
#238=ORIENTED_EDGE('',*,*,#386,.F.);
#239=ORIENTED_EDGE('',*,*,#372,.F.);
#240=ORIENTED_EDGE('',*,*,#387,.F.);
#241=ORIENTED_EDGE('',*,*,#380,.F.);
#242=ORIENTED_EDGE('',*,*,#388,.T.);
#243=ORIENTED_EDGE('',*,*,#389,.F.);
#244=ORIENTED_EDGE('',*,*,#390,.F.);
#245=ORIENTED_EDGE('',*,*,#383,.T.);
#246=ORIENTED_EDGE('',*,*,#391,.F.);
#247=ORIENTED_EDGE('',*,*,#370,.F.);
#248=ORIENTED_EDGE('',*,*,#392,.F.);
#249=ORIENTED_EDGE('',*,*,#378,.F.);
#250=ORIENTED_EDGE('',*,*,#393,.T.);
#251=ORIENTED_EDGE('',*,*,#385,.F.);
#252=ORIENTED_EDGE('',*,*,#394,.F.);
#253=ORIENTED_EDGE('',*,*,#395,.T.);
#254=ORIENTED_EDGE('',*,*,#390,.T.);
#255=ORIENTED_EDGE('',*,*,#396,.T.);
#256=ORIENTED_EDGE('',*,*,#394,.T.);
#257=ORIENTED_EDGE('',*,*,#384,.T.);
#258=ORIENTED_EDGE('',*,*,#397,.F.);
#259=ORIENTED_EDGE('',*,*,#388,.F.);
#260=ORIENTED_EDGE('',*,*,#382,.F.);
#261=ORIENTED_EDGE('',*,*,#393,.F.);
#262=ORIENTED_EDGE('',*,*,#398,.F.);
#263=ORIENTED_EDGE('',*,*,#399,.F.);
#264=ORIENTED_EDGE('',*,*,#392,.T.);
#265=ORIENTED_EDGE('',*,*,#373,.F.);
#266=ORIENTED_EDGE('',*,*,#386,.T.);
#267=ORIENTED_EDGE('',*,*,#379,.T.);
#268=ORIENTED_EDGE('',*,*,#391,.T.);
#269=ORIENTED_EDGE('',*,*,#381,.F.);
#270=ORIENTED_EDGE('',*,*,#387,.T.);
#271=ORIENTED_EDGE('',*,*,#371,.T.);
#272=ORIENTED_EDGE('',*,*,#400,.F.);
#273=ORIENTED_EDGE('',*,*,#401,.T.);
#274=ORIENTED_EDGE('',*,*,#402,.F.);
#275=ORIENTED_EDGE('',*,*,#403,.T.);
#276=ORIENTED_EDGE('',*,*,#399,.T.);
#277=ORIENTED_EDGE('',*,*,#404,.T.);
#278=ORIENTED_EDGE('',*,*,#402,.T.);
#279=ORIENTED_EDGE('',*,*,#405,.T.);
#280=ORIENTED_EDGE('',*,*,#400,.T.);
#281=ORIENTED_EDGE('',*,*,#406,.T.);
#282=ORIENTED_EDGE('',*,*,#404,.F.);
#283=ORIENTED_EDGE('',*,*,#407,.F.);
#284=ORIENTED_EDGE('',*,*,#408,.T.);
#285=ORIENTED_EDGE('',*,*,#409,.F.);
#286=ORIENTED_EDGE('',*,*,#410,.T.);
#287=ORIENTED_EDGE('',*,*,#398,.T.);
#288=ORIENTED_EDGE('',*,*,#411,.T.);
#289=ORIENTED_EDGE('',*,*,#409,.T.);
#290=ORIENTED_EDGE('',*,*,#412,.T.);
#291=ORIENTED_EDGE('',*,*,#407,.T.);
#292=ORIENTED_EDGE('',*,*,#413,.T.);
#293=ORIENTED_EDGE('',*,*,#411,.F.);
#294=ORIENTED_EDGE('',*,*,#414,.F.);
#295=ORIENTED_EDGE('',*,*,#366,.F.);
#296=ORIENTED_EDGE('',*,*,#415,.F.);
#297=ORIENTED_EDGE('',*,*,#408,.F.);
#298=ORIENTED_EDGE('',*,*,#415,.T.);
#299=ORIENTED_EDGE('',*,*,#369,.F.);
#300=ORIENTED_EDGE('',*,*,#416,.F.);
#301=ORIENTED_EDGE('',*,*,#413,.F.);
#302=ORIENTED_EDGE('',*,*,#414,.T.);
#303=ORIENTED_EDGE('',*,*,#412,.F.);
#304=ORIENTED_EDGE('',*,*,#417,.F.);
#305=ORIENTED_EDGE('',*,*,#367,.F.);
#306=ORIENTED_EDGE('',*,*,#416,.T.);
#307=ORIENTED_EDGE('',*,*,#368,.F.);
#308=ORIENTED_EDGE('',*,*,#417,.T.);
#309=ORIENTED_EDGE('',*,*,#410,.F.);
#310=ORIENTED_EDGE('',*,*,#418,.F.);
#311=ORIENTED_EDGE('',*,*,#374,.F.);
#312=ORIENTED_EDGE('',*,*,#419,.F.);
#313=ORIENTED_EDGE('',*,*,#401,.F.);
#314=ORIENTED_EDGE('',*,*,#419,.T.);
#315=ORIENTED_EDGE('',*,*,#377,.F.);
#316=ORIENTED_EDGE('',*,*,#420,.F.);
#317=ORIENTED_EDGE('',*,*,#406,.F.);
#318=ORIENTED_EDGE('',*,*,#418,.T.);
#319=ORIENTED_EDGE('',*,*,#405,.F.);
#320=ORIENTED_EDGE('',*,*,#421,.F.);
#321=ORIENTED_EDGE('',*,*,#375,.F.);
#322=ORIENTED_EDGE('',*,*,#420,.T.);
#323=ORIENTED_EDGE('',*,*,#376,.F.);
#324=ORIENTED_EDGE('',*,*,#421,.T.);
#325=ORIENTED_EDGE('',*,*,#403,.F.);
#326=ORIENTED_EDGE('',*,*,#397,.T.);
#327=ORIENTED_EDGE('',*,*,#395,.F.);
#328=ORIENTED_EDGE('',*,*,#396,.F.);
#329=ORIENTED_EDGE('',*,*,#389,.T.);
#330=VERTEX_POINT('',#601);
#331=VERTEX_POINT('',#602);
#332=VERTEX_POINT('',#622);
#333=VERTEX_POINT('',#648);
#334=VERTEX_POINT('',#669);
#335=VERTEX_POINT('',#670);
#336=VERTEX_POINT('',#672);
#337=VERTEX_POINT('',#674);
#338=VERTEX_POINT('',#702);
#339=VERTEX_POINT('',#703);
#340=VERTEX_POINT('',#723);
#341=VERTEX_POINT('',#749);
#342=VERTEX_POINT('',#770);
#343=VERTEX_POINT('',#771);
#344=VERTEX_POINT('',#773);
#345=VERTEX_POINT('',#775);
#346=VERTEX_POINT('',#779);
#347=VERTEX_POINT('',#780);
#348=VERTEX_POINT('',#782);
#349=VERTEX_POINT('',#784);
#350=VERTEX_POINT('',#790);
#351=VERTEX_POINT('',#792);
#352=VERTEX_POINT('',#798);
#353=VERTEX_POINT('',#800);
#354=VERTEX_POINT('',#807);
#355=VERTEX_POINT('',#809);
#356=VERTEX_POINT('',#814);
#357=VERTEX_POINT('',#815);
#358=VERTEX_POINT('',#843);
#359=VERTEX_POINT('',#844);
#360=VERTEX_POINT('',#872);
#361=VERTEX_POINT('',#911);
#362=VERTEX_POINT('',#912);
#363=VERTEX_POINT('',#940);
#364=VERTEX_POINT('',#941);
#365=VERTEX_POINT('',#969);
#366=EDGE_CURVE('',#330,#331,#422,.T.);
#367=EDGE_CURVE('',#331,#332,#423,.T.);
#368=EDGE_CURVE('',#332,#333,#424,.T.);
#369=EDGE_CURVE('',#333,#330,#425,.T.);
#370=EDGE_CURVE('',#334,#335,#145,.T.);
#371=EDGE_CURVE('',#336,#335,#105,.T.);
#372=EDGE_CURVE('',#336,#337,#146,.T.);
#373=EDGE_CURVE('',#337,#334,#106,.T.);
#374=EDGE_CURVE('',#338,#339,#426,.T.);
#375=EDGE_CURVE('',#339,#340,#427,.T.);
#376=EDGE_CURVE('',#340,#341,#428,.T.);
#377=EDGE_CURVE('',#341,#338,#429,.T.);
#378=EDGE_CURVE('',#342,#343,#147,.T.);
#379=EDGE_CURVE('',#344,#343,#107,.T.);
#380=EDGE_CURVE('',#344,#345,#148,.T.);
#381=EDGE_CURVE('',#345,#342,#108,.T.);
#382=EDGE_CURVE('',#346,#347,#109,.T.);
#383=EDGE_CURVE('',#348,#347,#110,.T.);
#384=EDGE_CURVE('',#349,#348,#111,.T.);
#385=EDGE_CURVE('',#349,#346,#112,.T.);
#386=EDGE_CURVE('',#337,#344,#113,.T.);
#387=EDGE_CURVE('',#345,#336,#114,.T.);
#388=EDGE_CURVE('',#347,#350,#115,.T.);
#389=EDGE_CURVE('',#351,#350,#116,.T.);
#390=EDGE_CURVE('',#348,#351,#117,.T.);
#391=EDGE_CURVE('',#335,#342,#118,.T.);
#392=EDGE_CURVE('',#343,#334,#119,.T.);
#393=EDGE_CURVE('',#352,#346,#120,.T.);
#394=EDGE_CURVE('',#353,#349,#121,.T.);
#395=EDGE_CURVE('',#353,#352,#122,.T.);
#396=EDGE_CURVE('',#351,#353,#123,.T.);
#397=EDGE_CURVE('',#350,#352,#124,.T.);
#398=EDGE_CURVE('',#354,#354,#44,.T.);
#399=EDGE_CURVE('',#355,#355,#45,.T.);
#400=EDGE_CURVE('',#356,#357,#149,.T.);
#401=EDGE_CURVE('',#356,#357,#430,.T.);
#402=EDGE_CURVE('',#358,#359,#150,.T.);
#403=EDGE_CURVE('',#358,#359,#431,.T.);
#404=EDGE_CURVE('',#360,#360,#151,.T.);
#405=EDGE_CURVE('',#359,#356,#432,.T.);
#406=EDGE_CURVE('',#357,#358,#433,.T.);
#407=EDGE_CURVE('',#361,#362,#152,.T.);
#408=EDGE_CURVE('',#361,#362,#434,.T.);
#409=EDGE_CURVE('',#363,#364,#153,.T.);
#410=EDGE_CURVE('',#363,#364,#435,.T.);
#411=EDGE_CURVE('',#365,#365,#154,.T.);
#412=EDGE_CURVE('',#364,#361,#436,.T.);
#413=EDGE_CURVE('',#362,#363,#437,.T.);
#414=EDGE_CURVE('',#331,#361,#155,.T.);
#415=EDGE_CURVE('',#362,#330,#156,.T.);
#416=EDGE_CURVE('',#363,#333,#157,.T.);
#417=EDGE_CURVE('',#332,#364,#158,.T.);
#418=EDGE_CURVE('',#339,#356,#159,.T.);
#419=EDGE_CURVE('',#357,#338,#160,.T.);
#420=EDGE_CURVE('',#358,#341,#161,.T.);
#421=EDGE_CURVE('',#340,#359,#162,.T.);
#422=B_SPLINE_CURVE_WITH_KNOTS('',3,(#576,#577,#578,#579,#580,#581,#582,
#583,#584,#585,#586,#587,#588,#589,#590,#591,#592,#593,#594,#595,#596,#597,
#598,#599,#600),.UNSPECIFIED.,.F.,.F.,(4,3,3,3,3,3,3,3,4),(0.,0.17967100806107,
0.363451199459715,0.437829330577647,0.497907638967073,0.558267906364759,
0.651041578149725,0.843445264758253,1.),.UNSPECIFIED.);
#423=B_SPLINE_CURVE_WITH_KNOTS('',3,(#603,#604,#605,#606,#607,#608,#609,
#610,#611,#612,#613,#614,#615,#616,#617,#618,#619,#620,#621),
 .UNSPECIFIED.,.F.,.F.,(4,3,3,3,3,3,4),(0.,0.0825250515706408,0.298567103136893,
0.5142186143,0.738985400962968,0.755742074414573,1.),.UNSPECIFIED.);
#424=B_SPLINE_CURVE_WITH_KNOTS('',3,(#623,#624,#625,#626,#627,#628,#629,
#630,#631,#632,#633,#634,#635,#636,#637,#638,#639,#640,#641,#642,#643,#644,
#645,#646,#647),.UNSPECIFIED.,.F.,.F.,(4,3,3,3,3,3,3,3,4),(0.,0.179671008061069,
0.363451199459714,0.437829330577644,0.49790763896707,0.558267906364755,
0.651041578149716,0.843445264758243,1.),.UNSPECIFIED.);
#425=B_SPLINE_CURVE_WITH_KNOTS('',3,(#649,#650,#651,#652,#653,#654,#655,
#656,#657,#658,#659,#660,#661,#662,#663,#664,#665,#666,#667),
 .UNSPECIFIED.,.F.,.F.,(4,3,3,3,3,3,4),(0.,0.0790183222403596,0.293076232372537,
0.511895564153369,0.738050032948832,0.754467759259283,1.),.UNSPECIFIED.);
#426=B_SPLINE_CURVE_WITH_KNOTS('',3,(#677,#678,#679,#680,#681,#682,#683,
#684,#685,#686,#687,#688,#689,#690,#691,#692,#693,#694,#695,#696,#697,#698,
#699,#700,#701),.UNSPECIFIED.,.F.,.F.,(4,3,3,3,3,3,3,3,4),(0.,0.179671008061078,
0.363451199459732,0.437829330577663,0.497907638967085,0.558267906364767,
0.651041578149739,0.843445264758283,1.),.UNSPECIFIED.);
#427=B_SPLINE_CURVE_WITH_KNOTS('',3,(#704,#705,#706,#707,#708,#709,#710,
#711,#712,#713,#714,#715,#716,#717,#718,#719,#720,#721,#722),
 .UNSPECIFIED.,.F.,.F.,(4,3,3,3,3,3,4),(0.,0.0790183222404039,0.293076232372567,
0.511895564153388,0.738050032948843,0.754467759259292,1.),.UNSPECIFIED.);
#428=B_SPLINE_CURVE_WITH_KNOTS('',3,(#724,#725,#726,#727,#728,#729,#730,
#731,#732,#733,#734,#735,#736,#737,#738,#739,#740,#741,#742,#743,#744,#745,
#746,#747,#748),.UNSPECIFIED.,.F.,.F.,(4,3,3,3,3,3,3,3,4),(0.,0.179671008061082,
0.363451199459741,0.437829330577673,0.497907638967097,0.558267906364779,
0.651041578149764,0.843445264758322,1.),.UNSPECIFIED.);
#429=B_SPLINE_CURVE_WITH_KNOTS('',3,(#750,#751,#752,#753,#754,#755,#756,
#757,#758,#759,#760,#761,#762,#763,#764,#765,#766,#767,#768),
 .UNSPECIFIED.,.F.,.F.,(4,3,3,3,3,3,4),(0.,0.0825250515706878,0.298567103136924,
0.51421861430002,0.738985400962979,0.755742074414583,1.),.UNSPECIFIED.);
#430=B_SPLINE_CURVE_WITH_KNOTS('',3,(#816,#817,#818,#819,#820,#821,#822,
#823,#824,#825,#826,#827,#828,#829,#830,#831,#832,#833,#834,#835,#836,#837,
#838,#839,#840),.UNSPECIFIED.,.F.,.F.,(4,3,3,3,3,3,3,3,4),(0.,0.162337701384711,
0.357670996946427,0.446958150509517,0.502136180897645,0.557144812979071,
0.628409082990552,0.814033992826093,1.),.UNSPECIFIED.);
#431=B_SPLINE_CURVE_WITH_KNOTS('',3,(#845,#846,#847,#848,#849,#850,#851,
#852,#853,#854,#855,#856,#857,#858,#859,#860,#861,#862,#863,#864,#865,#866,
#867,#868,#869),.UNSPECIFIED.,.F.,.F.,(4,3,3,3,3,3,3,3,4),(0.,0.16233770138467,
0.357670996946402,0.446958150509505,0.502136180897634,0.557144812979062,
0.628409082990544,0.814033992826088,1.),.UNSPECIFIED.);
#432=B_SPLINE_CURVE_WITH_KNOTS('',3,(#874,#875,#876,#877,#878,#879,#880,
#881,#882,#883,#884,#885,#886,#887,#888,#889),.UNSPECIFIED.,.F.,.F.,(4,
3,3,3,3,4),(0.,0.244913150456159,0.488423883816078,0.707078688284753,0.920857862803987,
1.),.UNSPECIFIED.);
#433=B_SPLINE_CURVE_WITH_KNOTS('',3,(#890,#891,#892,#893,#894,#895,#896,
#897,#898,#899,#900,#901,#902,#903,#904,#905,#906,#907,#908),
 .UNSPECIFIED.,.F.,.F.,(4,3,3,3,3,3,4),(0.,0.244584573650315,0.445537239697529,
0.485347790421689,0.701610973075891,0.917811093158779,1.),.UNSPECIFIED.);
#434=B_SPLINE_CURVE_WITH_KNOTS('',3,(#913,#914,#915,#916,#917,#918,#919,
#920,#921,#922,#923,#924,#925,#926,#927,#928,#929,#930,#931,#932,#933,#934,
#935,#936,#937),.UNSPECIFIED.,.F.,.F.,(4,3,3,3,3,3,3,3,4),(0.,0.162337701384741,
0.357670996946441,0.446958150509525,0.502136180897657,0.557144812979087,
0.62840908299057,0.814033992826102,1.),.UNSPECIFIED.);
#435=B_SPLINE_CURVE_WITH_KNOTS('',3,(#942,#943,#944,#945,#946,#947,#948,
#949,#950,#951,#952,#953,#954,#955,#956,#957,#958,#959,#960,#961,#962,#963,
#964,#965,#966),.UNSPECIFIED.,.F.,.F.,(4,3,3,3,3,3,3,3,4),(0.,0.162337701384752,
0.357670996946449,0.446958150509528,0.502136180897659,0.557144812979089,
0.628409082990571,0.814033992826102,1.),.UNSPECIFIED.);
#436=B_SPLINE_CURVE_WITH_KNOTS('',3,(#971,#972,#973,#974,#975,#976,#977,
#978,#979,#980,#981,#982,#983,#984,#985,#986,#987,#988,#989),
 .UNSPECIFIED.,.F.,.F.,(4,3,3,3,3,3,4),(0.,0.244584573650324,0.44553723969755,
0.485347790421708,0.701610973075921,0.917811093158824,1.),.UNSPECIFIED.);
#437=B_SPLINE_CURVE_WITH_KNOTS('',3,(#990,#991,#992,#993,#994,#995,#996,
#997,#998,#999,#1000,#1001,#1002,#1003,#1004,#1005),.UNSPECIFIED.,.F.,.F.,
(4,3,3,3,3,4),(0.,0.244913150456169,0.488423883816097,0.707078688284783,
0.920857862804033,1.),.UNSPECIFIED.);
#438=AXIS2_PLACEMENT_3D('',#575,#477,#478);
#439=AXIS2_PLACEMENT_3D('',#668,#479,#480);
#440=AXIS2_PLACEMENT_3D('',#673,#482,#483);
#441=AXIS2_PLACEMENT_3D('',#676,#485,#486);
#442=AXIS2_PLACEMENT_3D('',#769,#487,#488);
#443=AXIS2_PLACEMENT_3D('',#774,#490,#491);
#444=AXIS2_PLACEMENT_3D('',#777,#493,#494);
#445=AXIS2_PLACEMENT_3D('',#786,#499,#500);
#446=AXIS2_PLACEMENT_3D('',#794,#506,#507);
#447=AXIS2_PLACEMENT_3D('',#802,#513,#514);
#448=AXIS2_PLACEMENT_3D('',#804,#516,#517);
#449=AXIS2_PLACEMENT_3D('',#806,#519,#520);
#450=AXIS2_PLACEMENT_3D('',#808,#521,#522);
#451=AXIS2_PLACEMENT_3D('',#810,#523,#524);
#452=AXIS2_PLACEMENT_3D('',#811,#525,#526);
#453=AXIS2_PLACEMENT_3D('',#812,#527,#528);
#454=AXIS2_PLACEMENT_3D('',#813,#529,#530);
#455=AXIS2_PLACEMENT_3D('',#841,#531,#532);
#456=AXIS2_PLACEMENT_3D('',#842,#533,#534);
#457=AXIS2_PLACEMENT_3D('',#870,#535,#536);
#458=AXIS2_PLACEMENT_3D('',#871,#537,#538);
#459=AXIS2_PLACEMENT_3D('',#873,#539,#540);
#460=AXIS2_PLACEMENT_3D('',#909,#541,#542);
#461=AXIS2_PLACEMENT_3D('',#910,#543,#544);
#462=AXIS2_PLACEMENT_3D('',#938,#545,#546);
#463=AXIS2_PLACEMENT_3D('',#939,#547,#548);
#464=AXIS2_PLACEMENT_3D('',#967,#549,#550);
#465=AXIS2_PLACEMENT_3D('',#968,#551,#552);
#466=AXIS2_PLACEMENT_3D('',#970,#553,#554);
#467=AXIS2_PLACEMENT_3D('',#1006,#555,#556);
#468=AXIS2_PLACEMENT_3D('',#1007,#557,#558);
#469=AXIS2_PLACEMENT_3D('',#1008,#559,#560);
#470=AXIS2_PLACEMENT_3D('',#1051,#561,#562);
#471=AXIS2_PLACEMENT_3D('',#1070,#563,#564);
#472=AXIS2_PLACEMENT_3D('',#1131,#565,#566);
#473=AXIS2_PLACEMENT_3D('',#1132,#567,#568);
#474=AXIS2_PLACEMENT_3D('',#1175,#569,#570);
#475=AXIS2_PLACEMENT_3D('',#1194,#571,#572);
#476=AXIS2_PLACEMENT_3D('',#1255,#573,#574);
#477=DIRECTION('',(0.,0.,1.));
#478=DIRECTION('',(1.,0.,0.));
#479=DIRECTION('',(-5.12104057884525E-17,1.,0.));
#480=DIRECTION('',(1.,0.,0.));
#481=DIRECTION('',(0.,1.,0.));
#482=DIRECTION('',(-5.12104057884526E-17,-1.,0.));
#483=DIRECTION('',(-1.,0.,0.));
#484=DIRECTION('',(0.,1.,0.));
#485=DIRECTION('',(0.,-1.,0.));
#486=DIRECTION('',(0.,0.,-1.));
#487=DIRECTION('',(-5.12104057884525E-17,1.,0.));
#488=DIRECTION('',(1.,0.,0.));
#489=DIRECTION('',(0.,1.,0.));
#490=DIRECTION('',(-5.12104057884526E-17,-1.,0.));
#491=DIRECTION('',(-1.,0.,0.));
#492=DIRECTION('',(0.,1.,0.));
#493=DIRECTION('',(0.,-1.,0.));
#494=DIRECTION('',(0.,0.,-1.));
#495=DIRECTION('',(0.,-1.,0.));
#496=DIRECTION('',(0.,0.,-1.));
#497=DIRECTION('',(0.,-1.,0.));
#498=DIRECTION('',(0.,0.,-1.));
#499=DIRECTION('',(1.,0.,0.));
#500=DIRECTION('',(0.,0.,-1.));
#501=DIRECTION('',(-1.,5.12104057884526E-17,-2.59397902949803E-16));
#502=DIRECTION('',(1.,-5.12104057884526E-17,2.26973165081077E-16));
#503=DIRECTION('',(1.,-5.12104057884526E-17,0.));
#504=DIRECTION('',(0.,0.,-1.));
#505=DIRECTION('',(1.,-5.12104057884526E-17,0.));
#506=DIRECTION('',(5.12104057884526E-17,1.,0.));
#507=DIRECTION('',(-1.,5.20417042793042E-17,0.));
#508=DIRECTION('',(-1.,-5.12104057884525E-17,-2.26973165081077E-16));
#509=DIRECTION('',(1.,5.12104057884525E-17,2.59397902949803E-16));
#510=DIRECTION('',(-1.,-5.12104057884525E-17,0.));
#511=DIRECTION('',(-1.,-5.12104057884525E-17,0.));
#512=DIRECTION('',(0.,0.,-1.));
#513=DIRECTION('',(5.12104057884525E-17,-1.,0.));
#514=DIRECTION('',(1.,5.20417042793042E-17,0.));
#515=DIRECTION('',(0.,1.,0.));
#516=DIRECTION('',(0.,0.,-1.));
#517=DIRECTION('',(-1.,0.,0.));
#518=DIRECTION('',(0.,1.,0.));
#519=DIRECTION('',(0.,0.,-1.));
#520=DIRECTION('',(1.,0.,0.));
#521=DIRECTION('',(0.,0.,-1.));
#522=DIRECTION('',(-1.,0.,0.));
#523=DIRECTION('',(0.,0.,-1.));
#524=DIRECTION('',(-1.,0.,0.));
#525=DIRECTION('',(-2.59397902949803E-16,0.,1.));
#526=DIRECTION('',(1.,0.,2.60208521396521E-16));
#527=DIRECTION('',(2.26973165081077E-16,0.,-1.));
#528=DIRECTION('',(-1.,0.,-2.27248775352962E-16));
#529=DIRECTION('',(1.,0.,0.));
#530=DIRECTION('',(0.,0.,1.));
#531=DIRECTION('',(1.,0.,0.));
#532=DIRECTION('',(0.,0.,-1.));
#533=DIRECTION('',(1.,0.,0.));
#534=DIRECTION('',(0.,0.,1.));
#535=DIRECTION('',(1.,0.,0.));
#536=DIRECTION('',(0.,0.,-1.));
#537=DIRECTION('',(0.658842656629313,0.,0.752280767935502));
#538=DIRECTION('',(-0.752280767935503,0.,0.658842656629313));
#539=DIRECTION('',(-0.658842656629313,0.,-0.752280767935502));
#540=DIRECTION('',(-0.752280767935503,0.,0.658842656629313));
#541=DIRECTION('',(0.,-1.,0.));
#542=DIRECTION('',(0.,0.,-1.));
#543=DIRECTION('',(-1.,0.,0.));
#544=DIRECTION('',(0.,0.,-1.));
#545=DIRECTION('',(-1.,0.,0.));
#546=DIRECTION('',(0.,0.,1.));
#547=DIRECTION('',(-1.,0.,0.));
#548=DIRECTION('',(0.,0.,-1.));
#549=DIRECTION('',(-1.,0.,0.));
#550=DIRECTION('',(0.,0.,1.));
#551=DIRECTION('',(-0.658842656629313,0.,0.752280767935502));
#552=DIRECTION('',(-0.752280767935501,0.,-0.658842656629313));
#553=DIRECTION('',(0.658842656629314,0.,-0.752280767935501));
#554=DIRECTION('',(-0.752280767935501,0.,-0.658842656629315));
#555=DIRECTION('',(0.,1.,0.));
#556=DIRECTION('',(0.,0.,1.));
#557=DIRECTION('',(0.437478639259787,-0.48065801332022,-0.759987048851797));
#558=DIRECTION('',(0.,0.84515425472854,-0.534522483824813));
#559=DIRECTION('',(0.437478639259792,0.480658013320235,-0.759987048851785));
#560=DIRECTION('',(0.,0.845154254728529,0.53452248382483));
#561=DIRECTION('',(-0.437478639259789,-0.480658013320219,-0.759987048851797));
#562=DIRECTION('',(0.,0.84515425472854,-0.534522483824811));
#563=DIRECTION('',(-0.437478639259793,0.480658013320232,-0.759987048851786));
#564=DIRECTION('',(0.,0.845154254728531,0.534522483824826));
#565=DIRECTION('',(-0.437478639259805,-0.480658013320237,0.759987048851777));
#566=DIRECTION('',(0.,-0.845154254728525,-0.534522483824835));
#567=DIRECTION('',(-0.43747863925981,0.480658013320249,0.759987048851766));
#568=DIRECTION('',(0.,-0.845154254728516,0.534522483824851));
#569=DIRECTION('',(0.437478639259805,-0.480658013320245,0.759987048851771));
#570=DIRECTION('',(0.,-0.845154254728519,-0.534522483824844));
#571=DIRECTION('',(0.437478639259808,0.480658013320256,0.759987048851762));
#572=DIRECTION('',(0.,-0.845154254728511,0.534522483824858));
#573=DIRECTION('',(-1.,0.,0.));
#574=DIRECTION('',(0.,0.,1.));
#575=CARTESIAN_POINT('',(0.,0.,0.));
#576=CARTESIAN_POINT('',(104.566666666667,2.95803989154985,9.12138486760198));
#577=CARTESIAN_POINT('',(104.375471599973,2.71565590540078,9.45352856892077));
#578=CARTESIAN_POINT('',(104.141401503852,2.4150065664345,9.7234477548565));
#579=CARTESIAN_POINT('',(103.904632170351,2.0900390028349,9.93311738526734));
#580=CARTESIAN_POINT('',(103.661801459218,1.75675215611031,10.148154631445));
#581=CARTESIAN_POINT('',(103.403366681865,1.39030695652422,10.3075276456093));
#582=CARTESIAN_POINT('',(103.196564779043,0.986630070698146,10.4103179104752));
#583=CARTESIAN_POINT('',(103.112257062435,0.822061582560611,10.4522228078776));
#584=CARTESIAN_POINT('',(103.03661124588,0.64861796757535,10.4850013356456));
#585=CARTESIAN_POINT('',(102.985098647907,0.467385721651815,10.5061655526498));
#586=CARTESIAN_POINT('',(102.943567806523,0.321271412623663,10.5232287133911));
#587=CARTESIAN_POINT('',(102.918305157559,0.167582463193628,10.5327488308572));
#588=CARTESIAN_POINT('',(102.916855572585,0.0147330559398266,10.5333064587553));
#589=CARTESIAN_POINT('',(102.915399709702,-0.138778316455723,10.5338665016463));
#590=CARTESIAN_POINT('',(102.938050886587,-0.293744772161992,10.5253727709663));
#591=CARTESIAN_POINT('',(102.977824454465,-0.441131549771582,10.5091439163022));
#592=CARTESIAN_POINT('',(103.038867999443,-0.667337340912215,10.4842362484086));
#593=CARTESIAN_POINT('',(103.138100928843,-0.881661771228081,10.4412242684297));
#594=CARTESIAN_POINT('',(103.247254069155,-1.08263784043844,10.384567602328));
#595=CARTESIAN_POINT('',(103.472416353432,-1.4972134605194,10.2676956156625));
#596=CARTESIAN_POINT('',(103.744186282454,-1.87433963419445,10.0897251168103));
#597=CARTESIAN_POINT('',(103.99560036165,-2.21386128376502,9.84942099585355));
#598=CARTESIAN_POINT('',(104.200340694634,-2.49035246441267,9.65372811381828));
#599=CARTESIAN_POINT('',(104.399780581231,-2.74647316380828,9.41129905353658));
#600=CARTESIAN_POINT('',(104.566666666667,-2.95803989154988,9.12138486760194));
#601=CARTESIAN_POINT('',(104.566666666667,2.95803989154985,9.12138486760198));
#602=CARTESIAN_POINT('',(104.566666666667,-2.95803989154988,9.12138486760194));
#603=CARTESIAN_POINT('',(104.566666666667,-2.95803989154988,9.12138486760194));
#604=CARTESIAN_POINT('',(104.60883826261,-3.01150214716029,9.0481244524177));
#605=CARTESIAN_POINT('',(104.649111450787,-3.0621556019234,8.97153743083279));
#606=CARTESIAN_POINT('',(104.686861687522,-3.10942218936078,8.89188484737953));
#607=CARTESIAN_POINT('',(104.784741775126,-3.23197659217187,8.68535894130669));
#608=CARTESIAN_POINT('',(104.866836849605,-3.33337526586541,8.45418643579711));
#609=CARTESIAN_POINT('',(104.921510654782,-3.40126739916516,8.2099437770736));
#610=CARTESIAN_POINT('',(104.975894521262,-3.46879949612592,7.96699635284043));
#611=CARTESIAN_POINT('',(105.003816271949,-3.50402779747074,7.70421027503222));
#612=CARTESIAN_POINT('',(104.999556763452,-3.49961509256576,7.44632653258695));
#613=CARTESIAN_POINT('',(104.995123543144,-3.49502242817555,7.17792574299255));
#614=CARTESIAN_POINT('',(104.955610523716,-3.44704074369997,6.90680445769731));
#615=CARTESIAN_POINT('',(104.889546772144,-3.36482183651156,6.65991306073813));
#616=CARTESIAN_POINT('',(104.884535605217,-3.35858524445201,6.64118548360897));
#617=CARTESIAN_POINT('',(104.879372616461,-3.35215333008918,6.62256172618911));
#618=CARTESIAN_POINT('',(104.87406343693,-3.34553275499812,6.60404930825459));
#619=CARTESIAN_POINT('',(104.797763800175,-3.2503867024754,6.33800240675523));
#620=CARTESIAN_POINT('',(104.690066907745,-3.11447824972229,6.09298579333628));
#621=CARTESIAN_POINT('',(104.566666666667,-2.95803989154986,5.87861513239803));
#622=CARTESIAN_POINT('',(104.566666666667,-2.95803989154986,5.87861513239803));
#623=CARTESIAN_POINT('',(104.566666666667,-2.95803989154986,5.87861513239803));
#624=CARTESIAN_POINT('',(104.375471599973,-2.71565590540079,5.54647143107924));
#625=CARTESIAN_POINT('',(104.141401503852,-2.4150065664345,5.27655224514351));
#626=CARTESIAN_POINT('',(103.904632170351,-2.0900390028349,5.06688261473267));
#627=CARTESIAN_POINT('',(103.661801459218,-1.75675215611032,4.85184536855496));
#628=CARTESIAN_POINT('',(103.403366681865,-1.39030695652423,4.69247235439069));
#629=CARTESIAN_POINT('',(103.196564779043,-0.986630070698156,4.58968208952477));
#630=CARTESIAN_POINT('',(103.112257062435,-0.822061582560625,4.54777719212242));
#631=CARTESIAN_POINT('',(103.03661124588,-0.648617967575366,4.51499866435439));
#632=CARTESIAN_POINT('',(102.985098647907,-0.467385721651835,4.49383444735019));
#633=CARTESIAN_POINT('',(102.943567806523,-0.321271412623684,4.47677128660895));
#634=CARTESIAN_POINT('',(102.918305157559,-0.167582463193653,4.46725116914275));
#635=CARTESIAN_POINT('',(102.916855572585,-0.0147330559398516,4.46669354124465));
#636=CARTESIAN_POINT('',(102.915399709702,0.138778316455697,4.46613349835368));
#637=CARTESIAN_POINT('',(102.938050886587,0.293744772161964,4.47462722903371));
#638=CARTESIAN_POINT('',(102.977824454465,0.441131549771554,4.49085608369783));
#639=CARTESIAN_POINT('',(103.038867999443,0.667337340912177,4.5157637515914));
#640=CARTESIAN_POINT('',(103.138100928843,0.881661771228039,4.55877573157032));
#641=CARTESIAN_POINT('',(103.247254069155,1.08263784043839,4.61543239767202));
#642=CARTESIAN_POINT('',(103.472416353432,1.49721346051935,4.7323043843375));
#643=CARTESIAN_POINT('',(103.744186282454,1.8743396341944,4.91027488318963));
#644=CARTESIAN_POINT('',(103.99560036165,2.21386128376497,5.15057900414641));
#645=CARTESIAN_POINT('',(104.200340694634,2.49035246441264,5.3462718861817));
#646=CARTESIAN_POINT('',(104.399780581231,2.74647316380828,5.58870094646341));
#647=CARTESIAN_POINT('',(104.566666666667,2.95803989154989,5.87861513239807));
#648=CARTESIAN_POINT('',(104.566666666667,2.95803989154989,5.87861513239807));
#649=CARTESIAN_POINT('',(104.566666666667,2.95803989154989,5.87861513239807));
#650=CARTESIAN_POINT('',(104.607054608536,3.00924095291554,5.94877698716259));
#651=CARTESIAN_POINT('',(104.645624698235,3.05809969564002,6.02184944133732));
#652=CARTESIAN_POINT('',(104.68190817778,3.10396856628209,6.09771100087519));
#653=CARTESIAN_POINT('',(104.779265728836,3.22704609278736,6.30126633097286));
#654=CARTESIAN_POINT('',(104.861406136985,3.33002299469693,6.52893600129836));
#655=CARTESIAN_POINT('',(104.917006993472,3.39892802966872,6.77022832111593));
#656=CARTESIAN_POINT('',(104.973592429278,3.46905323419816,7.01579344252568));
#657=CARTESIAN_POINT('',(105.003248172387,3.50470745559997,7.28258196623426));
#658=CARTESIAN_POINT('',(104.999701043878,3.49947179275258,7.54408089629429));
#659=CARTESIAN_POINT('',(104.996036611274,3.49406298571521,7.81422763690732));
#660=CARTESIAN_POINT('',(104.956911797009,3.44515853194754,8.0869380905394));
#661=CARTESIAN_POINT('',(104.890709662494,3.36304672523798,8.33572891293499));
#662=CARTESIAN_POINT('',(104.885821674391,3.3569840576632,8.35409820856108));
#663=CARTESIAN_POINT('',(104.880786947786,3.35074011770096,8.37237030935526));
#664=CARTESIAN_POINT('',(104.875610597281,3.34432059132116,8.39053826092188));
#665=CARTESIAN_POINT('',(104.799292171709,3.24967318562893,8.65840062035319));
#666=CARTESIAN_POINT('',(104.690697399121,3.11527754342579,8.90591891826065));
#667=CARTESIAN_POINT('',(104.566666666667,2.95803989154985,9.12138486760198));
#668=CARTESIAN_POINT('',(101.75,15.,7.50000000000001));
#669=CARTESIAN_POINT('',(101.75,15.,10.75));
#670=CARTESIAN_POINT('',(101.75,15.,4.25000000000001));
#671=CARTESIAN_POINT('',(101.75,33.,4.25000000000001));
#672=CARTESIAN_POINT('',(101.75,-15.,4.25000000000001));
#673=CARTESIAN_POINT('',(101.75,-15.,7.50000000000002));
#674=CARTESIAN_POINT('',(101.75,-15.,10.75));
#675=CARTESIAN_POINT('',(101.75,33.,10.75));
#676=CARTESIAN_POINT('',(101.75,33.,7.50000000000001));
#677=CARTESIAN_POINT('',(45.4333333333333,2.9580398915498,5.87861513239796));
#678=CARTESIAN_POINT('',(45.6245284000271,2.71565590540072,5.54647143107917));
#679=CARTESIAN_POINT('',(45.8585984961477,2.41500656643442,5.27655224514344));
#680=CARTESIAN_POINT('',(46.0953678296494,2.09003900283481,5.06688261473261));
#681=CARTESIAN_POINT('',(46.3381985407818,1.75675215611021,4.85184536855491));
#682=CARTESIAN_POINT('',(46.596633318135,1.39030695652411,4.69247235439064));
#683=CARTESIAN_POINT('',(46.8034352209573,0.986630070698012,4.58968208952473));
#684=CARTESIAN_POINT('',(46.8877429375653,0.82206158256048,4.54777719212239));
#685=CARTESIAN_POINT('',(46.9633887541199,0.648617967575224,4.51499866435437));
#686=CARTESIAN_POINT('',(47.014901352093,0.467385721651692,4.49383444735018));
#687=CARTESIAN_POINT('',(47.0564321934769,0.321271412623551,4.47677128660894));
#688=CARTESIAN_POINT('',(47.0816948424408,0.167582463193528,4.46725116914275));
#689=CARTESIAN_POINT('',(47.0831444274148,0.0147330559397406,4.46669354124466));
#690=CARTESIAN_POINT('',(47.0846002902982,-0.138778316455795,4.46613349835368));
#691=CARTESIAN_POINT('',(47.0619491134126,-0.293744772162047,4.47462722903371));
#692=CARTESIAN_POINT('',(47.0221755455352,-0.441131549771622,4.49085608369783));
#693=CARTESIAN_POINT('',(46.9611320005572,-0.667337340912263,4.51576375159141));
#694=CARTESIAN_POINT('',(46.8618990711572,-0.88166177122814,4.55877573157034));
#695=CARTESIAN_POINT('',(46.7527459308454,-1.0826378404385,4.61543239767205));
#696=CARTESIAN_POINT('',(46.5275836465676,-1.49721346051948,4.73230438433755));
#697=CARTESIAN_POINT('',(46.2558137175457,-1.87433963419455,4.91027488318971));
#698=CARTESIAN_POINT('',(46.0043996383499,-2.21386128376513,5.15057900414652));
#699=CARTESIAN_POINT('',(45.7996593053662,-2.49035246441272,5.34627188618177));
#700=CARTESIAN_POINT('',(45.6002194187691,-2.74647316380827,5.58870094646343));
#701=CARTESIAN_POINT('',(45.4333333333333,-2.95803989154983,5.878615132398));
#702=CARTESIAN_POINT('',(45.4333333333333,2.9580398915498,5.87861513239796));
#703=CARTESIAN_POINT('',(45.4333333333333,-2.95803989154983,5.878615132398));
#704=CARTESIAN_POINT('',(45.4333333333333,-2.95803989154983,5.878615132398));
#705=CARTESIAN_POINT('',(45.3929453914641,-3.00924095291551,5.94877698716256));
#706=CARTESIAN_POINT('',(45.3543753017649,-3.05809969564003,6.02184944133734));
#707=CARTESIAN_POINT('',(45.3180918222199,-3.10396856628212,6.09771100087525));
#708=CARTESIAN_POINT('',(45.2207342711641,-3.22704609278739,6.30126633097293));
#709=CARTESIAN_POINT('',(45.1385938630145,-3.33002299469695,6.52893600129843));
#710=CARTESIAN_POINT('',(45.0829930065282,-3.39892802966873,6.77022832111599));
#711=CARTESIAN_POINT('',(45.0264075707221,-3.46905323419817,7.01579344252575));
#712=CARTESIAN_POINT('',(44.9967518276134,-3.50470745559998,7.28258196623434));
#713=CARTESIAN_POINT('',(45.0002989561219,-3.49947179275257,7.54408089629437));
#714=CARTESIAN_POINT('',(45.0039633887256,-3.4940629857152,7.81422763690741));
#715=CARTESIAN_POINT('',(45.0430882029908,-3.44515853194752,8.08693809053949));
#716=CARTESIAN_POINT('',(45.1092903375058,-3.36304672523795,8.33572891293508));
#717=CARTESIAN_POINT('',(45.1141783256087,-3.35698405766317,8.35409820856117));
#718=CARTESIAN_POINT('',(45.1192130522145,-3.35074011770092,8.37237030935535));
#719=CARTESIAN_POINT('',(45.1243894027192,-3.34432059132113,8.39053826092197));
#720=CARTESIAN_POINT('',(45.2007078282908,-3.24967318562889,8.65840062035328));
#721=CARTESIAN_POINT('',(45.3093026008793,-3.11527754342573,8.90591891826074));
#722=CARTESIAN_POINT('',(45.4333333333333,-2.95803989154979,9.12138486760207));
#723=CARTESIAN_POINT('',(45.4333333333333,-2.95803989154979,9.12138486760207));
#724=CARTESIAN_POINT('',(45.4333333333333,-2.95803989154979,9.12138486760207));
#725=CARTESIAN_POINT('',(45.6245284000271,-2.7156559054007,9.45352856892086));
#726=CARTESIAN_POINT('',(45.8585984961477,-2.41500656643439,9.72344775485658));
#727=CARTESIAN_POINT('',(46.0953678296494,-2.09003900283477,9.93311738526742));
#728=CARTESIAN_POINT('',(46.3381985407818,-1.75675215611017,10.1481546314451));
#729=CARTESIAN_POINT('',(46.596633318135,-1.39030695652406,10.3075276456094));
#730=CARTESIAN_POINT('',(46.8034352209573,-0.986630070697952,10.4103179104753));
#731=CARTESIAN_POINT('',(46.8877429375653,-0.822061582560417,10.4522228078776));
#732=CARTESIAN_POINT('',(46.9633887541199,-0.648617967575155,10.4850013356456));
#733=CARTESIAN_POINT('',(47.014901352093,-0.46738572165162,10.5061655526498));
#734=CARTESIAN_POINT('',(47.0564321934769,-0.321271412623474,10.5232287133911));
#735=CARTESIAN_POINT('',(47.0816948424407,-0.167582463193447,10.5327488308573));
#736=CARTESIAN_POINT('',(47.0831444274148,-0.014733055939656,10.5333064587553));
#737=CARTESIAN_POINT('',(47.0846002902981,0.13877831645588,10.5338665016463));
#738=CARTESIAN_POINT('',(47.0619491134125,0.293744772162132,10.5253727709663));
#739=CARTESIAN_POINT('',(47.0221755455352,0.441131549771705,10.5091439163022));
#740=CARTESIAN_POINT('',(46.9611320005571,0.667337340912371,10.4842362484086));
#741=CARTESIAN_POINT('',(46.8618990711571,0.881661771228269,10.4412242684296));
#742=CARTESIAN_POINT('',(46.7527459308453,1.08263784043865,10.3845676023279));
#743=CARTESIAN_POINT('',(46.5275836465675,1.49721346051965,10.2676956156624));
#744=CARTESIAN_POINT('',(46.2558137175456,1.87433963419473,10.0897251168102));
#745=CARTESIAN_POINT('',(46.0043996383498,2.21386128376532,9.84942099585334));
#746=CARTESIAN_POINT('',(45.799659305366,2.49035246441283,9.65372811381813));
#747=CARTESIAN_POINT('',(45.600219418769,2.74647316380831,9.41129905353653));
#748=CARTESIAN_POINT('',(45.4333333333333,2.95803989154982,9.12138486760203));
#749=CARTESIAN_POINT('',(45.4333333333333,2.95803989154982,9.12138486760203));
#750=CARTESIAN_POINT('',(45.4333333333333,2.95803989154982,9.12138486760203));
#751=CARTESIAN_POINT('',(45.3911617373898,3.01150214716026,9.04812445241775));
#752=CARTESIAN_POINT('',(45.3508885492133,3.06215560192341,8.97153743083279));
#753=CARTESIAN_POINT('',(45.3131383124778,3.10942218936081,8.89188484737948));
#754=CARTESIAN_POINT('',(45.2152582248743,3.23197659217189,8.68535894130664));
#755=CARTESIAN_POINT('',(45.1331631503953,3.33337526586543,8.45418643579706));
#756=CARTESIAN_POINT('',(45.0784893452182,3.40126739916517,8.20994377707355));
#757=CARTESIAN_POINT('',(45.0241054787379,3.46879949612593,7.96699635284037));
#758=CARTESIAN_POINT('',(44.9961837280507,3.50402779747074,7.70421027503215));
#759=CARTESIAN_POINT('',(45.0004432365481,3.49961509256576,7.44632653258688));
#760=CARTESIAN_POINT('',(45.0048764568555,3.49502242817555,7.17792574299248));
#761=CARTESIAN_POINT('',(45.0443894762844,3.44704074369995,6.90680445769723));
#762=CARTESIAN_POINT('',(45.1104532278557,3.36482183651154,6.65991306073805));
#763=CARTESIAN_POINT('',(45.1154643947827,3.35858524445199,6.64118548360889));
#764=CARTESIAN_POINT('',(45.1206273835389,3.35215333008915,6.62256172618903));
#765=CARTESIAN_POINT('',(45.1259365630703,3.34553275499809,6.60404930825452));
#766=CARTESIAN_POINT('',(45.2022361998246,3.25038670247536,6.33800240675515));
#767=CARTESIAN_POINT('',(45.3099330922553,3.11447824972224,6.09298579333621));
#768=CARTESIAN_POINT('',(45.4333333333333,2.9580398915498,5.87861513239796));
#769=CARTESIAN_POINT('',(48.25,15.,7.50000000000001));
#770=CARTESIAN_POINT('',(48.25,15.,4.25));
#771=CARTESIAN_POINT('',(48.25,15.,10.75));
#772=CARTESIAN_POINT('',(48.25,33.,10.75));
#773=CARTESIAN_POINT('',(48.25,-15.,10.75));
#774=CARTESIAN_POINT('',(48.25,-15.,7.5));
#775=CARTESIAN_POINT('',(48.25,-15.,4.25));
#776=CARTESIAN_POINT('',(48.25,33.,4.25));
#777=CARTESIAN_POINT('',(48.25,33.,7.50000000000001));
#778=CARTESIAN_POINT('',(0.,15.,0.));
#779=CARTESIAN_POINT('',(0.,15.,0.));
#780=CARTESIAN_POINT('',(0.,-15.,0.));
#781=CARTESIAN_POINT('',(0.,-15.,15.));
#782=CARTESIAN_POINT('',(0.,-15.,15.));
#783=CARTESIAN_POINT('',(0.,15.,15.));
#784=CARTESIAN_POINT('',(0.,15.,15.));
#785=CARTESIAN_POINT('',(0.,15.,15.));
#786=CARTESIAN_POINT('',(0.,15.,15.));
#787=CARTESIAN_POINT('',(101.75,-15.,10.75));
#788=CARTESIAN_POINT('',(48.25,-15.,4.25));
#789=CARTESIAN_POINT('',(0.,-15.,0.));
#790=CARTESIAN_POINT('',(169.372166581032,-15.,0.));
#791=CARTESIAN_POINT('',(169.372166581032,-15.,15.));
#792=CARTESIAN_POINT('',(169.372166581032,-15.,15.));
#793=CARTESIAN_POINT('',(0.,-15.,15.));
#794=CARTESIAN_POINT('',(0.,-15.,15.));
#795=CARTESIAN_POINT('',(48.25,15.,4.25));
#796=CARTESIAN_POINT('',(101.75,15.,10.75));
#797=CARTESIAN_POINT('',(169.372166581032,15.,0.));
#798=CARTESIAN_POINT('',(169.372166581032,15.,0.));
#799=CARTESIAN_POINT('',(169.372166581032,15.,15.));
#800=CARTESIAN_POINT('',(169.372166581032,15.,15.));
#801=CARTESIAN_POINT('',(169.372166581032,15.,15.));
#802=CARTESIAN_POINT('',(169.372166581032,15.,15.));
#803=CARTESIAN_POINT('',(169.372166581032,-39.9999999999991,15.));
#804=CARTESIAN_POINT('',(169.372166581032,-93.,15.));
#805=CARTESIAN_POINT('',(169.372166581032,-39.9999999999991,0.));
#806=CARTESIAN_POINT('',(117.23716876628,0.,4.33680868994202E-16));
#807=CARTESIAN_POINT('',(121.225041549779,0.,4.33680868994202E-16));
#808=CARTESIAN_POINT('',(32.76283123372,0.,4.33680868994202E-16));
#809=CARTESIAN_POINT('',(28.7749584502206,0.,4.33680868994202E-16));
#810=CARTESIAN_POINT('',(169.372166581032,-93.,0.));
#811=CARTESIAN_POINT('',(101.75,33.,10.75));
#812=CARTESIAN_POINT('',(48.25,33.,4.25));
#813=CARTESIAN_POINT('',(45.,0.,7.5));
#814=CARTESIAN_POINT('',(45.,-2.53546276418557,5.89643254852549));
#815=CARTESIAN_POINT('',(45.,2.53546276418555,5.89643254852545));
#816=CARTESIAN_POINT('',(45.,-2.53546276418557,5.89643254852549));
#817=CARTESIAN_POINT('',(45.1918497357419,-2.35478955856269,5.61076312755936));
#818=CARTESIAN_POINT('',(45.4214041616667,-2.13587156090866,5.37098760340993));
#819=CARTESIAN_POINT('',(45.6589226596343,-1.8975953860844,5.1763968172876));
#820=CARTESIAN_POINT('',(45.9445403938467,-1.6110665399001,4.94239997112012));
#821=CARTESIAN_POINT('',(46.2556045922475,-1.29288917340314,4.76582936843021));
#822=CARTESIAN_POINT('',(46.5223991509754,-0.927975291804418,4.64713094275245));
#823=CARTESIAN_POINT('',(46.644858218635,-0.760479320635705,4.5926482028852));
#824=CARTESIAN_POINT('',(46.7605500228999,-0.578319912733611,4.54936006978207));
#825=CARTESIAN_POINT('',(46.8332794756175,-0.378112756947105,4.52392359926129));
#826=CARTESIAN_POINT('',(46.8782284184187,-0.254378840939319,4.50820311167638));
#827=CARTESIAN_POINT('',(46.9053206339492,-0.11994031784691,4.49946853392063));
#828=CARTESIAN_POINT('',(46.9036281854786,0.0126283336626346,4.50002657925292));
#829=CARTESIAN_POINT('',(46.9019397165615,0.144885268716468,4.50058331242046));
#830=CARTESIAN_POINT('',(46.8717836913657,0.278048315324296,4.51035373077363));
#831=CARTESIAN_POINT('',(46.824886175492,0.400616332844307,4.52686923364303));
#832=CARTESIAN_POINT('',(46.763861454596,0.560106210305615,4.54835979522792));
#833=CARTESIAN_POINT('',(46.6758599196257,0.707966603874998,4.58120122740446));
#834=CARTESIAN_POINT('',(46.5808867934123,0.845682917741153,4.62166360502446));
#835=CARTESIAN_POINT('',(46.3351601414175,1.2020002264434,4.72635305751201));
#836=CARTESIAN_POINT('',(46.0392285066145,1.51072917775508,4.88462482128218));
#837=CARTESIAN_POINT('',(45.7638859572878,1.79146200242984,5.09362016841686));
#838=CARTESIAN_POINT('',(45.4887876464298,2.07194580727319,5.30243012937105));
#839=CARTESIAN_POINT('',(45.2196199467509,2.3286371480606,5.56941253581421));
#840=CARTESIAN_POINT('',(45.,2.53546276418555,5.89643254852545));
#841=CARTESIAN_POINT('',(45.,0.,7.5));
#842=CARTESIAN_POINT('',(45.,0.,7.5));
#843=CARTESIAN_POINT('',(45.,2.53546276418556,9.10356745147454));
#844=CARTESIAN_POINT('',(45.,-2.53546276418553,9.10356745147458));
#845=CARTESIAN_POINT('',(45.,2.53546276418556,9.10356745147454));
#846=CARTESIAN_POINT('',(45.1918497357418,2.35478955856272,9.38923687244059));
#847=CARTESIAN_POINT('',(45.4214041616666,2.13587156090876,9.62901239658996));
#848=CARTESIAN_POINT('',(45.6589226596341,1.89759538608456,9.82360318271227));
#849=CARTESIAN_POINT('',(45.9445403938465,1.61106653990026,10.0576000288798));
#850=CARTESIAN_POINT('',(46.2556045922473,1.29288917340328,10.2341706315697));
#851=CARTESIAN_POINT('',(46.5223991509752,0.927975291804547,10.3528690572475));
#852=CARTESIAN_POINT('',(46.6448582186349,0.760479320635817,10.4073517971148));
#853=CARTESIAN_POINT('',(46.7605500228998,0.578319912733705,10.4506399302179));
#854=CARTESIAN_POINT('',(46.8332794756174,0.378112756947176,10.4760764007387));
#855=CARTESIAN_POINT('',(46.8782284184186,0.254378840939391,10.4917968883236));
#856=CARTESIAN_POINT('',(46.9053206339491,0.119940317846984,10.5005314660794));
#857=CARTESIAN_POINT('',(46.9036281854785,-0.0126283336625619,10.4999734207471));
#858=CARTESIAN_POINT('',(46.9019397165615,-0.144885268716397,10.4994166875795));
#859=CARTESIAN_POINT('',(46.8717836913656,-0.27804831532423,10.4896462692264));
#860=CARTESIAN_POINT('',(46.8248861754919,-0.400616332844246,10.473130766357));
#861=CARTESIAN_POINT('',(46.7638614545959,-0.560106210305557,10.4516402047721));
#862=CARTESIAN_POINT('',(46.6758599196256,-0.707966603874944,10.4187987725956));
#863=CARTESIAN_POINT('',(46.5808867934122,-0.845682917741102,10.3783363949756));
#864=CARTESIAN_POINT('',(46.3351601414174,-1.20200022644336,10.273646942488));
#865=CARTESIAN_POINT('',(46.0392285066145,-1.51072917775505,10.1153751787178));
#866=CARTESIAN_POINT('',(45.7638859572878,-1.79146200242981,9.90637983158316));
#867=CARTESIAN_POINT('',(45.4887876464298,-2.07194580727317,9.69756987062897));
#868=CARTESIAN_POINT('',(45.2196199467509,-2.32863714806058,9.43058746418582));
#869=CARTESIAN_POINT('',(45.,-2.53546276418553,9.10356745147458));
#870=CARTESIAN_POINT('',(45.,0.,7.5));
#871=CARTESIAN_POINT('',(35.5964904008062,0.,3.23553320786642));
#872=CARTESIAN_POINT('',(33.3396480969997,0.,5.21206117775436));
#873=CARTESIAN_POINT('',(35.5964904008062,0.,3.23553320786642));
#874=CARTESIAN_POINT('',(45.,-2.53546276418553,9.10356745147458));
#875=CARTESIAN_POINT('',(44.8588401215387,-2.67091826711646,8.8893934960419));
#876=CARTESIAN_POINT('',(44.7352801705659,-2.78570715206402,8.64449297507));
#877=CARTESIAN_POINT('',(44.6474107828327,-2.86656050684668,8.3801324381759));
#878=CARTESIAN_POINT('',(44.5604705798635,-2.9465588686982,8.11856741163417));
#879=CARTESIAN_POINT('',(44.5071156276405,-2.99457075630648,7.82907777929946));
#880=CARTESIAN_POINT('',(44.5006904824278,-2.99954725093078,7.54218310888662));
#881=CARTESIAN_POINT('',(44.4949058165544,-3.00402767241072,7.2838870308557));
#882=CARTESIAN_POINT('',(44.5271040814938,-2.97354770342188,7.02004439605737));
#883=CARTESIAN_POINT('',(44.5916272340518,-2.9133668825732,6.77717522953347));
#884=CARTESIAN_POINT('',(44.6549818150243,-2.85427598982705,6.53870463926858));
#885=CARTESIAN_POINT('',(44.7501793355526,-2.76583640786628,6.31369932061337));
#886=CARTESIAN_POINT('',(44.8642061871833,-2.66054448538468,6.1129874696321));
#887=CARTESIAN_POINT('',(44.906837054237,-2.62117931933001,6.03794794944101));
#888=CARTESIAN_POINT('',(44.9522942452844,-2.57928740722637,5.96572539335188));
#889=CARTESIAN_POINT('',(45.,-2.53546276418557,5.89643254852549));
#890=CARTESIAN_POINT('',(45.,2.53546276418555,5.89643254852545));
#891=CARTESIAN_POINT('',(44.8545399877086,2.66908884668637,6.10771393627953));
#892=CARTESIAN_POINT('',(44.7285927465525,2.78590834767136,6.34985304564128));
#893=CARTESIAN_POINT('',(44.6407694580288,2.86759950428408,6.61304118146012));
#894=CARTESIAN_POINT('',(44.5685382585703,2.93478726651078,6.82950306819919));
#895=CARTESIAN_POINT('',(44.5210816629808,2.97922951335558,7.06535901780537));
#896=CARTESIAN_POINT('',(44.5057419895887,2.99411622743124,7.3022775061999));
#897=CARTESIAN_POINT('',(44.502659299859,2.99710788960139,7.3498890929837));
#898=CARTESIAN_POINT('',(44.5008144451038,2.99896139103066,7.39768225229856));
#899=CARTESIAN_POINT('',(44.5002138905414,2.99967007934208,7.44547820724954));
#900=CARTESIAN_POINT('',(44.4970050214817,3.00345672611482,7.70086043332607));
#901=CARTESIAN_POINT('',(44.5308432423785,2.97325999396646,7.96071403933478));
#902=CARTESIAN_POINT('',(44.5941878924914,2.91537205642729,8.20129907403097));
#903=CARTESIAN_POINT('',(44.6577393953856,2.85729508507291,8.44266974229653));
#904=CARTESIAN_POINT('',(44.7517916702414,2.77062607310492,8.67140194717641));
#905=CARTESIAN_POINT('',(44.8635699947431,2.66521901945212,8.87650310961244));
#906=CARTESIAN_POINT('',(44.9064571749572,2.62477637257944,8.95519645695616));
#907=CARTESIAN_POINT('',(44.9521528446528,2.58137638044829,9.03097164997195));
#908=CARTESIAN_POINT('',(45.,2.53546276418556,9.10356745147454));
#909=CARTESIAN_POINT('',(45.,0.,-5.));
#910=CARTESIAN_POINT('',(105.,0.,7.5));
#911=CARTESIAN_POINT('',(105.,-2.53546276418561,9.10356745147445));
#912=CARTESIAN_POINT('',(105.,2.53546276418559,9.10356745147449));
#913=CARTESIAN_POINT('',(105.,-2.53546276418561,9.10356745147445));
#914=CARTESIAN_POINT('',(104.808150264258,-2.3547895585627,9.38923687244064));
#915=CARTESIAN_POINT('',(104.578595838333,-2.13587156090862,9.62901239659012));
#916=CARTESIAN_POINT('',(104.341077340366,-1.8975953860843,9.82360318271248));
#917=CARTESIAN_POINT('',(104.055459606153,-1.61106653990001,10.0576000288799));
#918=CARTESIAN_POINT('',(103.744395407752,-1.29288917340307,10.2341706315698));
#919=CARTESIAN_POINT('',(103.477600849025,-0.927975291804363,10.3528690572476));
#920=CARTESIAN_POINT('',(103.355141781365,-0.760479320635657,10.4073517971148));
#921=CARTESIAN_POINT('',(103.2394499771,-0.578319912733567,10.4506399302179));
#922=CARTESIAN_POINT('',(103.166720524383,-0.37811275694707,10.4760764007387));
#923=CARTESIAN_POINT('',(103.121771581581,-0.254378840939271,10.4917968883236));
#924=CARTESIAN_POINT('',(103.094679366051,-0.119940317846848,10.5005314660794));
#925=CARTESIAN_POINT('',(103.096371814521,0.0126283336627087,10.4999734207471));
#926=CARTESIAN_POINT('',(103.098060283438,0.144885268716555,10.4994166875795));
#927=CARTESIAN_POINT('',(103.128216308634,0.278048315324393,10.4896462692264));
#928=CARTESIAN_POINT('',(103.175113824508,0.400616332844412,10.473130766357));
#929=CARTESIAN_POINT('',(103.236138545404,0.560106210305723,10.4516402047721));
#930=CARTESIAN_POINT('',(103.324140080374,0.70796660387511,10.4187987725955));
#931=CARTESIAN_POINT('',(103.419113206588,0.845682917741268,10.3783363949755));
#932=CARTESIAN_POINT('',(103.664839858583,1.20200022644349,10.2736469424879));
#933=CARTESIAN_POINT('',(103.960771493386,1.51072917775517,10.1153751787178));
#934=CARTESIAN_POINT('',(104.236114042712,1.79146200242991,9.90637983158308));
#935=CARTESIAN_POINT('',(104.51121235357,2.07194580727326,9.69756987062889));
#936=CARTESIAN_POINT('',(104.780380053249,2.32863714806065,9.43058746418573));
#937=CARTESIAN_POINT('',(105.,2.53546276418559,9.10356745147449));
#938=CARTESIAN_POINT('',(105.,0.,7.5));
#939=CARTESIAN_POINT('',(105.,0.,7.5));
#940=CARTESIAN_POINT('',(105.,2.53546276418562,5.89643254852556));
#941=CARTESIAN_POINT('',(105.,-2.53546276418559,5.89643254852552));
#942=CARTESIAN_POINT('',(105.,2.53546276418562,5.89643254852556));
#943=CARTESIAN_POINT('',(104.808150264258,2.3547895585627,5.61076312755935));
#944=CARTESIAN_POINT('',(104.578595838333,2.1358715609086,5.37098760340986));
#945=CARTESIAN_POINT('',(104.341077340366,1.89759538608426,5.17639681728748));
#946=CARTESIAN_POINT('',(104.055459606153,1.61106653989997,4.94239997112005));
#947=CARTESIAN_POINT('',(103.744395407752,1.29288917340303,4.76582936843015));
#948=CARTESIAN_POINT('',(103.477600849025,0.927975291804321,4.64713094275242));
#949=CARTESIAN_POINT('',(103.355141781365,0.76047932063562,4.59264820288518));
#950=CARTESIAN_POINT('',(103.2394499771,0.578319912733537,4.54936006978206));
#951=CARTESIAN_POINT('',(103.166720524382,0.378112756947046,4.52392359926129));
#952=CARTESIAN_POINT('',(103.121771581581,0.254378840939247,4.50820311167637));
#953=CARTESIAN_POINT('',(103.094679366051,0.119940317846826,4.49946853392062));
#954=CARTESIAN_POINT('',(103.096371814521,-0.0126283336627298,4.50002657925293));
#955=CARTESIAN_POINT('',(103.098060283438,-0.144885268716576,4.50058331242047));
#956=CARTESIAN_POINT('',(103.128216308634,-0.278048315324411,4.51035373077364));
#957=CARTESIAN_POINT('',(103.175113824508,-0.400616332844429,4.52686923364305));
#958=CARTESIAN_POINT('',(103.236138545404,-0.560106210305739,4.54835979522795));
#959=CARTESIAN_POINT('',(103.324140080374,-0.70796660387512,4.58120122740449));
#960=CARTESIAN_POINT('',(103.419113206588,-0.845682917741277,4.62166360502449));
#961=CARTESIAN_POINT('',(103.664839858583,-1.2020002264435,4.72635305751206));
#962=CARTESIAN_POINT('',(103.960771493386,-1.51072917775517,4.88462482128223));
#963=CARTESIAN_POINT('',(104.236114042712,-1.79146200242992,5.09362016841692));
#964=CARTESIAN_POINT('',(104.51121235357,-2.07194580727326,5.30243012937112));
#965=CARTESIAN_POINT('',(104.780380053249,-2.32863714806066,5.56941253581428));
#966=CARTESIAN_POINT('',(105.,-2.53546276418559,5.89643254852552));
#967=CARTESIAN_POINT('',(105.,0.,7.5));
#968=CARTESIAN_POINT('',(114.403509599194,0.,3.23553320786642));
#969=CARTESIAN_POINT('',(112.146667295387,0.,1.25900523797848));
#970=CARTESIAN_POINT('',(114.403509599194,0.,3.23553320786642));
#971=CARTESIAN_POINT('',(105.,-2.53546276418559,5.89643254852552));
#972=CARTESIAN_POINT('',(105.145460012291,-2.66908884668641,6.10771393627961));
#973=CARTESIAN_POINT('',(105.271407253447,-2.7859083476714,6.34985304564135));
#974=CARTESIAN_POINT('',(105.359230541971,-2.8675995042841,6.61304118146019));
#975=CARTESIAN_POINT('',(105.43146174143,-2.9347872665108,6.82950306819927));
#976=CARTESIAN_POINT('',(105.478918337019,-2.97922951335559,7.06535901780545));
#977=CARTESIAN_POINT('',(105.494258010411,-2.99411622743125,7.30227750619998));
#978=CARTESIAN_POINT('',(105.497340700141,-2.9971078896014,7.34988909298378));
#979=CARTESIAN_POINT('',(105.499185554896,-2.99896139103066,7.39768225229863));
#980=CARTESIAN_POINT('',(105.499786109459,-2.99967007934208,7.44547820724961));
#981=CARTESIAN_POINT('',(105.502994978518,-3.00345672611482,7.70086043332614));
#982=CARTESIAN_POINT('',(105.469156757621,-2.97325999396645,7.96071403933484));
#983=CARTESIAN_POINT('',(105.405812107509,-2.91537205642728,8.20129907403102));
#984=CARTESIAN_POINT('',(105.342260604614,-2.85729508507289,8.44266974229658));
#985=CARTESIAN_POINT('',(105.248208329758,-2.77062607310489,8.67140194717646));
#986=CARTESIAN_POINT('',(105.136430005257,-2.6652190194521,8.87650310961249));
#987=CARTESIAN_POINT('',(105.093542825043,-2.62477637257944,8.95519645695616));
#988=CARTESIAN_POINT('',(105.047847155347,-2.58137638044831,9.0309716499719));
#989=CARTESIAN_POINT('',(105.,-2.53546276418561,9.10356745147445));
#990=CARTESIAN_POINT('',(105.,2.53546276418559,9.10356745147449));
#991=CARTESIAN_POINT('',(105.141159878461,2.67091826711651,8.88939349604181));
#992=CARTESIAN_POINT('',(105.264719829434,2.78570715206405,8.64449297506991));
#993=CARTESIAN_POINT('',(105.352589217167,2.86656050684671,8.38013243817581));
#994=CARTESIAN_POINT('',(105.439529420137,2.94655886869822,8.11856741163409));
#995=CARTESIAN_POINT('',(105.492884372359,2.99457075630649,7.82907777929937));
#996=CARTESIAN_POINT('',(105.499309517572,2.99954725093078,7.54218310888654));
#997=CARTESIAN_POINT('',(105.505094183446,3.00402767241072,7.28388703085562));
#998=CARTESIAN_POINT('',(105.472895918506,2.97354770342187,7.0200443960573));
#999=CARTESIAN_POINT('',(105.408372765948,2.91336688257318,6.77717522953341));
#1000=CARTESIAN_POINT('',(105.345018184976,2.85427598982703,6.53870463926852));
#1001=CARTESIAN_POINT('',(105.249820664447,2.76583640786626,6.31369932061331));
#1002=CARTESIAN_POINT('',(105.135793812817,2.66054448538465,6.11298746963205));
#1003=CARTESIAN_POINT('',(105.093162945763,2.62117931933,6.037947949441));
#1004=CARTESIAN_POINT('',(105.047705754716,2.57928740722639,5.96572539335191));
#1005=CARTESIAN_POINT('',(105.,2.53546276418562,5.89643254852556));
#1006=CARTESIAN_POINT('',(105.,0.,-5.));
#1007=CARTESIAN_POINT('',(105.,-2.95803989154988,9.37082869338685));
#1008=CARTESIAN_POINT('',(105.,2.95803989154985,9.3708286933869));
#1009=CARTESIAN_POINT('',(105.,2.53546276418559,9.10356745147449));
#1010=CARTESIAN_POINT('',(104.657894736842,2.62442636994648,8.96290363994163));
#1011=CARTESIAN_POINT('',(104.566666666667,2.95803989154985,9.12138486760198));
#1012=CARTESIAN_POINT('',(104.70552542327,2.25814331797517,9.54204799621525));
#1013=CARTESIAN_POINT('',(104.445898187164,2.38920430266781,9.38576489691278));
#1014=CARTESIAN_POINT('',(104.311277712679,2.63427528385461,9.56504606618889));
#1015=CARTESIAN_POINT('',(104.320672994005,1.89416517466357,9.87435073726684));
#1016=CARTESIAN_POINT('',(104.120035602885,2.03064992156728,9.77464854711893));
#1017=CARTESIAN_POINT('',(103.977916598291,2.20985937039218,9.90073241689219));
#1018=CARTESIAN_POINT('',(103.750713398041,1.27488547236695,10.225989327834));
#1019=CARTESIAN_POINT('',(103.603773092358,1.37211133187282,10.1812766135489));
#1020=CARTESIAN_POINT('',(103.483951609892,1.48736638445243,10.2562780957598));
#1021=CARTESIAN_POINT('',(103.559735815156,1.05587126258411,10.3195767813756));
#1022=CARTESIAN_POINT('',(103.429444085545,1.13883439248694,10.2904888299627));
#1023=CARTESIAN_POINT('',(103.318437708994,1.23184980728967,10.3509054203603));
#1024=CARTESIAN_POINT('',(103.230812959149,0.565400627251507,10.4572283442316));
#1025=CARTESIAN_POINT('',(103.129197593002,0.613583785612273,10.4493829232547));
#1026=CARTESIAN_POINT('',(103.033371228737,0.659634064185172,10.4900864288649));
#1027=CARTESIAN_POINT('',(103.095714131846,0.290771049043251,10.5001902680723));
#1028=CARTESIAN_POINT('',(103.002911962514,0.31415668859054,10.5002208727029));
#1029=CARTESIAN_POINT('',(102.916285580936,0.339232890554656,10.5335257099245));
#1030=CARTESIAN_POINT('',(103.096872141707,-0.294684025756997,10.4998084559787));
#1031=CARTESIAN_POINT('',(103.003978700608,-0.318403934469846,10.4997776324069));
#1032=CARTESIAN_POINT('',(102.917289189477,-0.343798030054026,10.5331396666162));
#1033=CARTESIAN_POINT('',(103.232580902549,-0.56832383688133,10.4565378307279));
#1034=CARTESIAN_POINT('',(103.130801483474,-0.616693294146021,10.4485914570928));
#1035=CARTESIAN_POINT('',(103.034903446402,-0.663044475379326,10.4893882429819));
#1036=CARTESIAN_POINT('',(103.559888005516,-1.05580955452245,10.3194634441099));
#1037=CARTESIAN_POINT('',(103.429562382233,-1.13872908708346,10.2903672729003));
#1038=CARTESIAN_POINT('',(103.318569607254,-1.23177781459175,10.3507908237985));
#1039=CARTESIAN_POINT('',(103.751905138538,-1.27621374977454,10.2253015793464));
#1040=CARTESIAN_POINT('',(103.604819946158,-1.37348069326835,10.1805066807077));
#1041=CARTESIAN_POINT('',(103.484984451729,-1.48891604133302,10.2555827055768));
#1042=CARTESIAN_POINT('',(104.320051872475,-1.89342332512369,9.87463871902301));
#1043=CARTESIAN_POINT('',(104.119390974292,-2.02975553158288,9.77504048570222));
#1044=CARTESIAN_POINT('',(103.97737829282,-2.20899387945218,9.90102359853685));
#1045=CARTESIAN_POINT('',(104.705407388314,-2.25803215872776,9.54222375441767));
#1046=CARTESIAN_POINT('',(104.445814525132,-2.38911147501907,9.38593177571161));
#1047=CARTESIAN_POINT('',(104.311178921179,-2.63415004359644,9.56521768659306));
#1048=CARTESIAN_POINT('',(105.,-2.53546276418561,9.10356745147445));
#1049=CARTESIAN_POINT('',(104.657894736842,-2.6244263699465,8.96290363994158));
#1050=CARTESIAN_POINT('',(104.566666666667,-2.95803989154988,9.12138486760194));
#1051=CARTESIAN_POINT('',(105.,2.95803989154989,5.62917130661316));
#1052=CARTESIAN_POINT('',(104.566666666667,2.95803989154985,9.12138486760198));
#1053=CARTESIAN_POINT('',(104.657894736842,2.62442636994648,8.96290363994163));
#1054=CARTESIAN_POINT('',(105.,2.53546276418559,9.10356745147449));
#1055=CARTESIAN_POINT('',(104.826478994437,3.2874121316127,8.67003939260523));
#1056=CARTESIAN_POINT('',(104.901098080944,2.89914485813711,8.47729977448551));
#1057=CARTESIAN_POINT('',(105.294184164534,2.81775871902807,8.65721835569731));
#1058=CARTESIAN_POINT('',(104.999655084759,3.49758661024369,8.09932544771018));
#1059=CARTESIAN_POINT('',(105.0000315182,3.00229477181966,7.99717412836756));
#1060=CARTESIAN_POINT('',(105.495604318912,2.99793138451585,8.09147246560096));
#1061=CARTESIAN_POINT('',(105.000343835447,3.50237117166168,6.90442119451216));
#1062=CARTESIAN_POINT('',(104.999969133521,2.99779042514226,6.99880646489125));
#1063=CARTESIAN_POINT('',(105.504255647158,3.0020324285459,6.90938027848152));
#1064=CARTESIAN_POINT('',(104.828389844532,3.289834591785,6.33328013249676));
#1065=CARTESIAN_POINT('',(104.91040273836,2.89788586312735,6.54008126201624));
#1066=CARTESIAN_POINT('',(105.309516829714,2.81979877935687,6.34600726290425));
#1067=CARTESIAN_POINT('',(104.566666666667,2.9580398915499,5.87861513239805));
#1068=CARTESIAN_POINT('',(104.657894736842,2.62442636994652,6.0370963600584));
#1069=CARTESIAN_POINT('',(105.,2.53546276418563,5.89643254852555));
#1070=CARTESIAN_POINT('',(105.,-2.95803989154986,5.62917130661311));
#1071=CARTESIAN_POINT('',(104.566666666667,-2.95803989154986,5.87861513239803));
#1072=CARTESIAN_POINT('',(104.657894736842,-2.62442636994649,6.03709636005838));
#1073=CARTESIAN_POINT('',(105.,-2.5354627641856,5.89643254852552));
#1074=CARTESIAN_POINT('',(104.826616605081,-3.28758659665122,6.3301996643402));
#1075=CARTESIAN_POINT('',(104.908624058427,-2.89595959983395,6.53653821731138));
#1076=CARTESIAN_POINT('',(105.307426036171,-2.8178780859288,6.34297037994445));
#1077=CARTESIAN_POINT('',(104.999488365774,-3.50132944425358,6.90013942639734));
#1078=CARTESIAN_POINT('',(104.999390958897,-2.99714281174639,6.99540222697476));
#1079=CARTESIAN_POINT('',(105.503300408238,-3.00113952946403,6.90514986236626));
#1080=CARTESIAN_POINT('',(105.000509258942,-3.49865737292678,8.09430371410697));
#1081=CARTESIAN_POINT('',(105.000600143061,-3.00289865469462,7.99308773149475));
#1082=CARTESIAN_POINT('',(105.496619263365,-2.99884917097627,8.08649917671221));
#1083=CARTESIAN_POINT('',(104.828026802889,-3.28937434120968,8.6673505427472));
#1084=CARTESIAN_POINT('',(104.902624747541,-2.90086935600975,8.47425148875447));
#1085=CARTESIAN_POINT('',(105.295938834054,-2.81944247810195,8.65455609884519));
#1086=CARTESIAN_POINT('',(104.566666666667,-2.95803989154992,9.12138486760198));
#1087=CARTESIAN_POINT('',(104.657894736842,-2.62442636994654,8.96290363994163));
#1088=CARTESIAN_POINT('',(105.,-2.53546276418565,9.10356745147448));
#1089=CARTESIAN_POINT('',(105.,-2.5354627641856,5.89643254852552));
#1090=CARTESIAN_POINT('',(104.657894736842,-2.62442636994649,6.03709636005838));
#1091=CARTESIAN_POINT('',(104.566666666667,-2.95803989154986,5.87861513239803));
#1092=CARTESIAN_POINT('',(104.705525423268,-2.25814331797353,5.45795200378215));
#1093=CARTESIAN_POINT('',(104.445898187164,-2.38920430266629,5.61423510308433));
#1094=CARTESIAN_POINT('',(104.311277712678,-2.63427528385298,5.43495393380798));
#1095=CARTESIAN_POINT('',(104.32067299401,-1.89416517466624,5.12564926273468));
#1096=CARTESIAN_POINT('',(104.120035602896,-2.03064992156852,5.22535145288288));
#1097=CARTESIAN_POINT('',(103.977916598294,-2.20985937039532,5.09926758311053));
#1098=CARTESIAN_POINT('',(103.750713398039,-1.27488547236563,4.77401067216528));
#1099=CARTESIAN_POINT('',(103.603773092354,-1.37211133187258,4.8187233864505));
#1100=CARTESIAN_POINT('',(103.483951609891,-1.48736638445088,4.74372190423884));
#1101=CARTESIAN_POINT('',(103.559735815156,-1.05587126258481,4.68042321862463));
#1102=CARTESIAN_POINT('',(103.429444085545,-1.13883439248784,4.70951117003817));
#1103=CARTESIAN_POINT('',(103.318437708994,-1.23184980729041,4.64909457963982));
#1104=CARTESIAN_POINT('',(103.230812959149,-0.565400627250812,4.54277165576821));
#1105=CARTESIAN_POINT('',(103.129197593002,-0.613583785611395,4.55061707674447));
#1106=CARTESIAN_POINT('',(103.033371228737,-0.659634064184436,4.50991357113496));
#1107=CARTESIAN_POINT('',(103.095714131846,-0.29077104904364,4.49980973192767));
#1108=CARTESIAN_POINT('',(103.002911962519,-0.314156688590831,4.49977912729757));
#1109=CARTESIAN_POINT('',(102.916285580938,-0.339232890555111,4.46647429007632));
#1110=CARTESIAN_POINT('',(103.096872141707,0.294684025757383,4.50019154402131));
#1111=CARTESIAN_POINT('',(103.003978700603,0.318403934470402,4.50022236759269));
#1112=CARTESIAN_POINT('',(102.917289189475,0.343798030054477,4.46686033338297));
#1113=CARTESIAN_POINT('',(103.232580902549,0.568323836880653,4.54346216927192));
#1114=CARTESIAN_POINT('',(103.130801483478,0.616693294144036,4.55140854290708));
#1115=CARTESIAN_POINT('',(103.034903446404,0.663044475378569,4.5106117570191));
#1116=CARTESIAN_POINT('',(103.559888005516,1.05580955452315,4.68053655589034));
#1117=CARTESIAN_POINT('',(103.429562382228,1.13872908708573,4.70963272709986));
#1118=CARTESIAN_POINT('',(103.318569607252,1.23177781459254,4.64920917620052));
#1119=CARTESIAN_POINT('',(103.751905138538,1.27621374977451,4.77469842065361));
#1120=CARTESIAN_POINT('',(103.604819946156,1.37348069326888,4.81949331929238));
#1121=CARTESIAN_POINT('',(103.484984451727,1.48891604133299,4.74441729442208));
#1122=CARTESIAN_POINT('',(104.320051872475,1.89342332512375,5.12536128097702));
#1123=CARTESIAN_POINT('',(104.119390974296,2.029755531581,5.22495951429716));
#1124=CARTESIAN_POINT('',(103.977378292823,2.20899387945226,5.09897640146546));
#1125=CARTESIAN_POINT('',(104.705407388314,2.25803215872779,5.45777624558237));
#1126=CARTESIAN_POINT('',(104.445814525143,2.38911147501712,5.61406822428212));
#1127=CARTESIAN_POINT('',(104.311178921178,2.63415004359589,5.43478231340489));
#1128=CARTESIAN_POINT('',(105.,2.53546276418562,5.89643254852557));
#1129=CARTESIAN_POINT('',(104.657894736842,2.6244263699465,6.03709636005843));
#1130=CARTESIAN_POINT('',(104.566666666667,2.95803989154989,5.87861513239807));
#1131=CARTESIAN_POINT('',(45.,-2.95803989154983,5.62917130661307));
#1132=CARTESIAN_POINT('',(45.,2.9580398915498,5.62917130661302));
#1133=CARTESIAN_POINT('',(45.,2.53546276418555,5.89643254852545));
#1134=CARTESIAN_POINT('',(45.3421052631579,2.62442636994644,6.03709636005831));
#1135=CARTESIAN_POINT('',(45.4333333333333,2.9580398915498,5.87861513239796));
#1136=CARTESIAN_POINT('',(45.2944745767238,2.25814331797205,5.45795200377985));
#1137=CARTESIAN_POINT('',(45.5541018128492,2.38920430267808,5.6142351030889));
#1138=CARTESIAN_POINT('',(45.6887222873212,2.6342752838551,5.43495393381001));
#1139=CARTESIAN_POINT('',(45.6793270059926,1.89416517466479,5.12564926273385));
#1140=CARTESIAN_POINT('',(45.8799643971191,2.03064992157055,5.22535145288187));
#1141=CARTESIAN_POINT('',(46.0220834017092,2.20985937039352,5.09926758310799));
#1142=CARTESIAN_POINT('',(46.2492866019602,1.27488547236629,4.77401067216567));
#1143=CARTESIAN_POINT('',(46.3962269076392,1.37211133187148,4.8187233864509));
#1144=CARTESIAN_POINT('',(46.5160483901077,1.48736638445171,4.74372190424008));
#1145=CARTESIAN_POINT('',(46.4402641848444,1.05587126258418,4.68042321862445));
#1146=CARTESIAN_POINT('',(46.5705559144554,1.1388343924871,4.70951117003772));
#1147=CARTESIAN_POINT('',(46.6815622910063,1.23184980728972,4.64909457963973));
#1148=CARTESIAN_POINT('',(46.7691870408508,0.565400627251411,4.54277165576838));
#1149=CARTESIAN_POINT('',(46.870802406998,0.613583785612079,4.55061707674491));
#1150=CARTESIAN_POINT('',(46.9666287712627,0.659634064185091,4.50991357113505));
#1151=CARTESIAN_POINT('',(46.9042858681537,0.290771049043643,4.49980973192767));
#1152=CARTESIAN_POINT('',(46.997088037482,0.314156688590899,4.49977912729743));
#1153=CARTESIAN_POINT('',(47.0837144190633,0.339232890555113,4.46647429007592));
#1154=CARTESIAN_POINT('',(46.9031278582932,-0.294684025757366,4.5001915440213));
#1155=CARTESIAN_POINT('',(46.9960212993956,-0.318403934470315,4.50022236759284));
#1156=CARTESIAN_POINT('',(47.0827108105238,-0.343798030054457,4.46686033338337));
#1157=CARTESIAN_POINT('',(46.7674190974513,-0.568323836881608,4.54346216927219));
#1158=CARTESIAN_POINT('',(46.869198516524,-0.616693294145716,4.55140854290734));
#1159=CARTESIAN_POINT('',(46.9650965535968,-0.663044475379662,4.51061175701866));
#1160=CARTESIAN_POINT('',(46.4401119944842,-1.05580955452214,4.68053655589006));
#1161=CARTESIAN_POINT('',(46.5704376177695,-1.13872908708384,4.70963272709953));
#1162=CARTESIAN_POINT('',(46.6814303927473,-1.23177781459138,4.64920917620095));
#1163=CARTESIAN_POINT('',(46.2480948614616,-1.27621374977487,4.77469842065382));
#1164=CARTESIAN_POINT('',(46.3951800538394,-1.37348069326765,4.81949331929268));
#1165=CARTESIAN_POINT('',(46.5150155482712,-1.48891604133346,4.74441729442327));
#1166=CARTESIAN_POINT('',(45.6799481275255,-1.89342332512292,5.12536128097654));
#1167=CARTESIAN_POINT('',(45.8806090257133,-2.02975553158386,5.2249595142967));
#1168=CARTESIAN_POINT('',(46.0226217071799,-2.20899387945119,5.09897640146303));
#1169=CARTESIAN_POINT('',(45.2945926116869,-2.25803215872832,5.45777624558324));
#1170=CARTESIAN_POINT('',(45.5541854748592,-2.38911147501054,5.61406822429002));
#1171=CARTESIAN_POINT('',(45.688821078821,-2.63415004359692,5.43478231340708));
#1172=CARTESIAN_POINT('',(45.,-2.53546276418557,5.89643254852549));
#1173=CARTESIAN_POINT('',(45.3421052631578,-2.62442636994647,6.03709636005835));
#1174=CARTESIAN_POINT('',(45.4333333333333,-2.95803989154984,5.878615132398));
#1175=CARTESIAN_POINT('',(45.,2.95803989154982,9.37082869338696));
#1176=CARTESIAN_POINT('',(45.4333333333333,2.9580398915498,5.87861513239796));
#1177=CARTESIAN_POINT('',(45.3421052631579,2.62442636994644,6.03709636005831));
#1178=CARTESIAN_POINT('',(45.,2.53546276418555,5.89643254852545));
#1179=CARTESIAN_POINT('',(45.1733833949177,3.28758659664702,6.33019966434205));
#1180=CARTESIAN_POINT('',(45.0913759415582,2.89595959982591,6.53653821730269));
#1181=CARTESIAN_POINT('',(44.6925739638304,2.81787808592912,6.34297037994493));
#1182=CARTESIAN_POINT('',(45.0005116342256,3.50132944425358,6.90013942639792));
#1183=CARTESIAN_POINT('',(45.0006090410911,2.99714281174398,6.99540222697411));
#1184=CARTESIAN_POINT('',(44.4966995917622,3.00113952946403,6.90514986236683));
#1185=CARTESIAN_POINT('',(44.9994907410584,3.49865737292678,8.09430371410641));
#1186=CARTESIAN_POINT('',(44.999399856951,3.00289865469698,7.99308773149298));
#1187=CARTESIAN_POINT('',(44.5033807366351,2.99884917097627,8.08649917671166));
#1188=CARTESIAN_POINT('',(45.1719731971118,3.28937434121017,8.66735054274789));
#1189=CARTESIAN_POINT('',(45.0973752524582,2.90086935600602,8.47425148874832));
#1190=CARTESIAN_POINT('',(44.7040611659391,2.81944247809986,8.65455609884853));
#1191=CARTESIAN_POINT('',(45.4333333333332,2.95803989154986,9.12138486760207));
#1192=CARTESIAN_POINT('',(45.3421052631578,2.62442636994649,8.96290363994172));
#1193=CARTESIAN_POINT('',(44.9999999999999,2.5354627641856,9.10356745147457));
#1194=CARTESIAN_POINT('',(45.,-2.95803989154979,9.37082869338701));
#1195=CARTESIAN_POINT('',(45.4333333333333,-2.95803989154979,9.12138486760207));
#1196=CARTESIAN_POINT('',(45.3421052631579,-2.62442636994643,8.96290363994172));
#1197=CARTESIAN_POINT('',(45.,-2.53546276418553,9.10356745147458));
#1198=CARTESIAN_POINT('',(45.173521005563,-3.28741213161282,8.67003939260567));
#1199=CARTESIAN_POINT('',(45.0989019190599,-2.89914485814763,8.47729977449291));
#1200=CARTESIAN_POINT('',(44.7058158354653,-2.81775871902667,8.65721835569958));
#1201=CARTESIAN_POINT('',(45.0003449152411,-3.49758661024354,8.09932544770962));
#1202=CARTESIAN_POINT('',(44.9999684817953,-3.00229477181,7.99717412837171));
#1203=CARTESIAN_POINT('',(44.5043956810829,-2.99793138451585,8.09147246560071));
#1204=CARTESIAN_POINT('',(44.9996561645534,-3.50237117166183,6.90442119451273));
#1205=CARTESIAN_POINT('',(45.0000308664834,-2.99779042515203,6.99880646489663));
#1206=CARTESIAN_POINT('',(44.4957443528468,-3.0020324285459,6.90938027848179));
#1207=CARTESIAN_POINT('',(45.171610155468,-3.28983459178567,6.33328013249589));
#1208=CARTESIAN_POINT('',(45.0895972616477,-2.89788586314178,6.54008126201468));
#1209=CARTESIAN_POINT('',(44.6904831702928,-2.81979877935987,6.34600726290895));
#1210=CARTESIAN_POINT('',(45.4333333333332,-2.95803989154984,5.87861513239797));
#1211=CARTESIAN_POINT('',(45.3421052631578,-2.62442636994647,6.03709636005832));
#1212=CARTESIAN_POINT('',(44.9999999999999,-2.53546276418558,5.89643254852547));
#1213=CARTESIAN_POINT('',(45.,-2.53546276418553,9.10356745147458));
#1214=CARTESIAN_POINT('',(45.3421052631579,-2.62442636994643,8.96290363994172));
#1215=CARTESIAN_POINT('',(45.4333333333333,-2.95803989154979,9.12138486760207));
#1216=CARTESIAN_POINT('',(45.294474576725,-2.25814331797301,9.54204799621862));
#1217=CARTESIAN_POINT('',(45.5541018128506,-2.3892043026772,9.38576489690977));
#1218=CARTESIAN_POINT('',(45.6887222873208,-2.63427528385565,9.56504606618926));
#1219=CARTESIAN_POINT('',(45.6793270059949,-1.89416517466456,9.87435073726628));
#1220=CARTESIAN_POINT('',(45.8799643971191,-2.03064992157034,9.77464854711812));
#1221=CARTESIAN_POINT('',(46.0220834017107,-2.20985937039364,9.90073241689313));
#1222=CARTESIAN_POINT('',(46.249286601959,-1.27488547236639,10.2259893278343));
#1223=CARTESIAN_POINT('',(46.3962269076391,-1.37211133187159,10.1812766135491));
#1224=CARTESIAN_POINT('',(46.5160483901069,-1.48736638445163,10.2562780957594));
#1225=CARTESIAN_POINT('',(46.4402641848444,-1.05587126258417,10.3195767813755));
#1226=CARTESIAN_POINT('',(46.5705559144554,-1.13883439248697,10.2904888299621));
#1227=CARTESIAN_POINT('',(46.6815622910062,-1.23184980728967,10.3509054203603));
#1228=CARTESIAN_POINT('',(46.7691870408507,-0.565400627251404,10.4572283442316));
#1229=CARTESIAN_POINT('',(46.870802406998,-0.613583785612211,10.4493829232552));
#1230=CARTESIAN_POINT('',(46.9666287712627,-0.659634064185124,10.490086428865));
#1231=CARTESIAN_POINT('',(46.9042858681536,-0.29077104904345,10.5001902680723));
#1232=CARTESIAN_POINT('',(46.9970880374855,-0.314156688590747,10.5002208727026));
#1233=CARTESIAN_POINT('',(47.0837144190643,-0.339232890554888,10.5335257099245));
#1234=CARTESIAN_POINT('',(46.9031278582932,0.294684025757161,10.4998084559787));
#1235=CARTESIAN_POINT('',(46.996021299392,0.318403934470028,10.4997776324072));
#1236=CARTESIAN_POINT('',(47.0827108105228,0.343798030054217,10.5331396666163));
#1237=CARTESIAN_POINT('',(46.7674190974513,0.568323836881535,10.4565378307278));
#1238=CARTESIAN_POINT('',(46.8691985165216,0.616693294145075,10.4485914570922));
#1239=CARTESIAN_POINT('',(46.9650965535967,0.663044475379482,10.4893882429813));
#1240=CARTESIAN_POINT('',(46.4401119944842,1.05580955452218,10.3194634441099));
#1241=CARTESIAN_POINT('',(46.5704376177719,1.13872908708444,10.2903672729009));
#1242=CARTESIAN_POINT('',(46.6814303927474,1.23177781459152,10.3507908237991));
#1243=CARTESIAN_POINT('',(46.2480948614616,1.27621374977554,10.2253015793458));
#1244=CARTESIAN_POINT('',(46.3951800538394,1.37348069326804,10.1805066807072));
#1245=CARTESIAN_POINT('',(46.5150155482711,1.48891604133421,10.2555827055767));
#1246=CARTESIAN_POINT('',(45.6799481275255,1.89342332512154,9.87463871902424));
#1247=CARTESIAN_POINT('',(45.8806090257134,2.02975553158279,9.77504048570371));
#1248=CARTESIAN_POINT('',(46.02262170718,2.20899387944964,9.90102359853709));
#1249=CARTESIAN_POINT('',(45.2945926116843,2.25803215872806,9.54222375441716));
#1250=CARTESIAN_POINT('',(45.5541854748628,2.38911147501134,9.38593177570823));
#1251=CARTESIAN_POINT('',(45.6888210788204,2.63415004359639,9.56521768659192));
#1252=CARTESIAN_POINT('',(45.,2.53546276418556,9.10356745147453));
#1253=CARTESIAN_POINT('',(45.3421052631578,2.62442636994645,8.96290363994168));
#1254=CARTESIAN_POINT('',(45.4333333333333,2.95803989154982,9.12138486760203));
#1255=CARTESIAN_POINT('',(169.372166581032,-39.9999999999991,0.));
#1256=MECHANICAL_DESIGN_GEOMETRIC_PRESENTATION_REPRESENTATION('',(#24),
#1257);
#1257=(
GEOMETRIC_REPRESENTATION_CONTEXT(3)
GLOBAL_UNCERTAINTY_ASSIGNED_CONTEXT((#1258))
GLOBAL_UNIT_ASSIGNED_CONTEXT((#1264,#1260,#1259))
REPRESENTATION_CONTEXT('Drone Wing Chassis - Candilever',
'TOP_LEVEL_ASSEMBLY_PART')
);
#1258=UNCERTAINTY_MEASURE_WITH_UNIT(LENGTH_MEASURE(0.0508),#1264,
'DISTANCE_ACCURACY_VALUE','Maximum Tolerance applied to model');
#1259=(
NAMED_UNIT(*)
SI_UNIT($,.STERADIAN.)
SOLID_ANGLE_UNIT()
);
#1260=(
CONVERSION_BASED_UNIT('DEGREE',#1262)
NAMED_UNIT(#1261)
PLANE_ANGLE_UNIT()
);
#1261=DIMENSIONAL_EXPONENTS(0.,0.,0.,0.,0.,0.,0.);
#1262=PLANE_ANGLE_MEASURE_WITH_UNIT(PLANE_ANGLE_MEASURE(0.0174532925),#1263);
#1263=(
NAMED_UNIT(*)
PLANE_ANGLE_UNIT()
SI_UNIT($,.RADIAN.)
);
#1264=(
LENGTH_UNIT()
NAMED_UNIT(*)
SI_UNIT(.MILLI.,.METRE.)
);
ENDSEC;
END-ISO-10303-21;
