ISO-10303-21;
HEADER;
/* Generated by software containing ST-Developer
 * from STEP Tools, Inc. (www.steptools.com) 
 */
/* OPTION: using custom schema-name function */

FILE_DESCRIPTION(
/* description */ (''),
/* implementation_level */ '2;1');

FILE_NAME(
/* name */ 'X-Mount.stp',
/* time_stamp */ '2026-08-04T22:35:18+05:30',
/* author */ (''),
/* organization */ (''),
/* preprocessor_version */ 'ST-DEVELOPER v20.1',
/* originating_system */ 'SIEMENS PLM Software NX2606.3002',
/* authorisation */ '');

FILE_SCHEMA (('AUTOMOTIVE_DESIGN { 1 0 10303 214 3 1 1 1 }'));
ENDSEC;

DATA;
#10=SHAPE_REPRESENTATION_RELATIONSHIP('None',
'relationship between X-Mount-None and X-Mount-None',#22,#11);
#11=ADVANCED_BREP_SHAPE_REPRESENTATION('X-Mount-None',(#32),#1225);
#12=SHAPE_DEFINITION_REPRESENTATION(#13,#22);
#13=PRODUCT_DEFINITION_SHAPE('','',#14);
#14=PRODUCT_DEFINITION(' ','',#16,#15);
#15=PRODUCT_DEFINITION_CONTEXT('part definition',#21,'design');
#16=PRODUCT_DEFINITION_FORMATION_WITH_SPECIFIED_SOURCE(' ',' ',#18,
 .NOT_KNOWN.);
#17=PRODUCT_RELATED_PRODUCT_CATEGORY('part','',(#18));
#18=PRODUCT('X-Mount','X-Mount',' ',(#19));
#19=PRODUCT_CONTEXT(' ',#21,'mechanical');
#20=APPLICATION_PROTOCOL_DEFINITION('international standard',
'automotive_design',2010,#21);
#21=APPLICATION_CONTEXT(
'core data for automotive mechanical design processes');
#22=SHAPE_REPRESENTATION('X-Mount-None',(#718),#1225);
#23=PRESENTATION_LAYER_ASSIGNMENT('1','Layer 1',(#32));
#24=STYLED_ITEM('',(#25),#32);
#25=PRESENTATION_STYLE_ASSIGNMENT((#26));
#26=SURFACE_STYLE_USAGE(.BOTH.,#27);
#27=SURFACE_SIDE_STYLE('',(#28));
#28=SURFACE_STYLE_FILL_AREA(#29);
#29=FILL_AREA_STYLE('',(#30));
#30=FILL_AREA_STYLE_COLOUR('',#31);
#31=COLOUR_RGB('medium steel',0.611764705882353,0.658823529411765,0.670588235294118);
#32=MANIFOLD_SOLID_BREP('',#33);
#33=CLOSED_SHELL('',(#130,#131,#132,#133,#134,#135,#136,#137,#138,#139,
#140,#141,#142,#143,#144,#145,#146,#147,#148,#149,#150,#151,#152,#153,#154,
#155,#156,#157,#158,#159,#160,#161,#162,#163,#164,#165,#166,#167,#168,#169,
#170,#171,#172));
#34=CONICAL_SURFACE('',#775,2.5,45.);
#35=CONICAL_SURFACE('',#776,0.,45.);
#36=CONICAL_SURFACE('',#780,2.5,45.);
#37=CONICAL_SURFACE('',#781,0.,45.);
#38=CONICAL_SURFACE('',#785,2.5,45.);
#39=CONICAL_SURFACE('',#786,0.,45.);
#40=CONICAL_SURFACE('',#790,2.5,45.);
#41=CONICAL_SURFACE('',#791,0.,45.);
#42=CONICAL_SURFACE('',#795,2.5,45.);
#43=CONICAL_SURFACE('',#796,0.,45.);
#44=CONICAL_SURFACE('',#800,2.5,45.);
#45=CONICAL_SURFACE('',#801,0.,45.);
#46=CONICAL_SURFACE('',#805,2.5,45.);
#47=CONICAL_SURFACE('',#806,0.,45.);
#48=CONICAL_SURFACE('',#810,2.5,45.);
#49=CONICAL_SURFACE('',#811,0.,45.);
#50=FACE_BOUND('',#222,.T.);
#51=FACE_BOUND('',#223,.T.);
#52=FACE_BOUND('',#224,.T.);
#53=FACE_BOUND('',#225,.T.);
#54=FACE_BOUND('',#226,.T.);
#55=FACE_BOUND('',#227,.T.);
#56=FACE_BOUND('',#228,.T.);
#57=FACE_BOUND('',#229,.T.);
#58=FACE_BOUND('',#230,.T.);
#59=FACE_BOUND('',#231,.T.);
#60=FACE_BOUND('',#232,.T.);
#61=FACE_BOUND('',#233,.T.);
#62=FACE_BOUND('',#234,.T.);
#63=FACE_BOUND('',#235,.T.);
#64=FACE_BOUND('',#236,.T.);
#65=FACE_BOUND('',#237,.T.);
#66=FACE_BOUND('',#238,.T.);
#67=FACE_BOUND('',#239,.T.);
#68=FACE_BOUND('',#240,.T.);
#69=FACE_BOUND('',#241,.T.);
#70=FACE_BOUND('',#242,.T.);
#71=FACE_BOUND('',#243,.T.);
#72=FACE_BOUND('',#244,.T.);
#73=FACE_BOUND('',#245,.T.);
#74=FACE_BOUND('',#246,.T.);
#75=FACE_BOUND('',#247,.T.);
#76=FACE_BOUND('',#248,.T.);
#77=FACE_BOUND('',#249,.T.);
#78=FACE_BOUND('',#250,.T.);
#79=FACE_BOUND('',#251,.T.);
#80=FACE_BOUND('',#252,.T.);
#81=FACE_BOUND('',#253,.T.);
#82=FACE_BOUND('',#254,.T.);
#83=FACE_BOUND('',#255,.T.);
#84=FACE_BOUND('',#256,.T.);
#85=FACE_BOUND('',#257,.T.);
#86=FACE_BOUND('',#258,.T.);
#87=FACE_BOUND('',#259,.T.);
#88=FACE_BOUND('',#260,.T.);
#89=FACE_BOUND('',#261,.T.);
#90=FACE_BOUND('',#262,.T.);
#91=FACE_BOUND('',#263,.T.);
#92=FACE_BOUND('',#264,.T.);
#93=FACE_BOUND('',#265,.T.);
#94=FACE_BOUND('',#266,.T.);
#95=FACE_BOUND('',#267,.T.);
#96=FACE_BOUND('',#268,.T.);
#97=FACE_BOUND('',#269,.T.);
#98=FACE_BOUND('',#270,.T.);
#99=FACE_BOUND('',#271,.T.);
#100=FACE_BOUND('',#272,.T.);
#101=FACE_BOUND('',#273,.T.);
#102=FACE_BOUND('',#274,.T.);
#103=FACE_BOUND('',#275,.T.);
#104=FACE_BOUND('',#276,.T.);
#105=FACE_BOUND('',#277,.T.);
#106=FACE_BOUND('',#278,.T.);
#107=FACE_BOUND('',#279,.T.);
#108=FACE_BOUND('',#280,.T.);
#109=FACE_BOUND('',#281,.T.);
#110=FACE_BOUND('',#282,.T.);
#111=FACE_BOUND('',#283,.T.);
#112=FACE_BOUND('',#284,.T.);
#113=FACE_BOUND('',#285,.T.);
#114=FACE_BOUND('',#286,.T.);
#115=FACE_BOUND('',#287,.T.);
#116=FACE_BOUND('',#288,.T.);
#117=FACE_BOUND('',#289,.T.);
#118=FACE_BOUND('',#290,.T.);
#119=FACE_BOUND('',#291,.T.);
#120=PLANE('',#722);
#121=PLANE('',#726);
#122=PLANE('',#730);
#123=PLANE('',#734);
#124=PLANE('',#738);
#125=PLANE('',#742);
#126=PLANE('',#746);
#127=PLANE('',#750);
#128=PLANE('',#762);
#129=PLANE('',#771);
#130=ADVANCED_FACE('',(#190),#173,.T.);
#131=ADVANCED_FACE('',(#191),#120,.F.);
#132=ADVANCED_FACE('',(#192),#174,.F.);
#133=ADVANCED_FACE('',(#193),#121,.F.);
#134=ADVANCED_FACE('',(#194),#175,.T.);
#135=ADVANCED_FACE('',(#195),#122,.F.);
#136=ADVANCED_FACE('',(#196),#176,.F.);
#137=ADVANCED_FACE('',(#197),#123,.F.);
#138=ADVANCED_FACE('',(#198),#177,.T.);
#139=ADVANCED_FACE('',(#199),#124,.F.);
#140=ADVANCED_FACE('',(#200),#178,.F.);
#141=ADVANCED_FACE('',(#201),#125,.F.);
#142=ADVANCED_FACE('',(#202),#179,.T.);
#143=ADVANCED_FACE('',(#203),#126,.F.);
#144=ADVANCED_FACE('',(#204),#180,.F.);
#145=ADVANCED_FACE('',(#205),#127,.F.);
#146=ADVANCED_FACE('',(#50,#51),#181,.F.);
#147=ADVANCED_FACE('',(#52,#53,#54,#55,#56,#57,#58,#59,#60,#61),#128,.T.);
#148=ADVANCED_FACE('',(#62,#63,#64,#65,#66,#67,#68,#69,#70,#71),#129,.F.);
#149=ADVANCED_FACE('',(#72,#73),#182,.F.);
#150=ADVANCED_FACE('',(#74,#75),#34,.F.);
#151=ADVANCED_FACE('',(#76,#77),#35,.F.);
#152=ADVANCED_FACE('',(#78,#79),#183,.F.);
#153=ADVANCED_FACE('',(#80,#81),#36,.F.);
#154=ADVANCED_FACE('',(#82,#83),#37,.F.);
#155=ADVANCED_FACE('',(#84,#85),#184,.F.);
#156=ADVANCED_FACE('',(#86,#87),#38,.F.);
#157=ADVANCED_FACE('',(#88,#89),#39,.F.);
#158=ADVANCED_FACE('',(#90,#91),#185,.F.);
#159=ADVANCED_FACE('',(#92,#93),#40,.F.);
#160=ADVANCED_FACE('',(#94,#95),#41,.F.);
#161=ADVANCED_FACE('',(#96,#97),#186,.F.);
#162=ADVANCED_FACE('',(#98,#99),#42,.F.);
#163=ADVANCED_FACE('',(#100,#101),#43,.F.);
#164=ADVANCED_FACE('',(#102,#103),#187,.F.);
#165=ADVANCED_FACE('',(#104,#105),#44,.F.);
#166=ADVANCED_FACE('',(#106,#107),#45,.F.);
#167=ADVANCED_FACE('',(#108,#109),#188,.F.);
#168=ADVANCED_FACE('',(#110,#111),#46,.F.);
#169=ADVANCED_FACE('',(#112,#113),#47,.F.);
#170=ADVANCED_FACE('',(#114,#115),#189,.F.);
#171=ADVANCED_FACE('',(#116,#117),#48,.F.);
#172=ADVANCED_FACE('',(#118,#119),#49,.F.);
#173=CYLINDRICAL_SURFACE('',#721,4.);
#174=CYLINDRICAL_SURFACE('',#725,5.80199039391211);
#175=CYLINDRICAL_SURFACE('',#729,4.);
#176=CYLINDRICAL_SURFACE('',#733,5.80199039391211);
#177=CYLINDRICAL_SURFACE('',#737,4.);
#178=CYLINDRICAL_SURFACE('',#741,5.80199039391211);
#179=CYLINDRICAL_SURFACE('',#745,4.);
#180=CYLINDRICAL_SURFACE('',#749,5.80199039391211);
#181=CYLINDRICAL_SURFACE('',#753,4.99999999999999);
#182=CYLINDRICAL_SURFACE('',#774,1.6);
#183=CYLINDRICAL_SURFACE('',#779,1.6);
#184=CYLINDRICAL_SURFACE('',#784,1.6);
#185=CYLINDRICAL_SURFACE('',#789,1.6);
#186=CYLINDRICAL_SURFACE('',#794,1.6);
#187=CYLINDRICAL_SURFACE('',#799,1.6);
#188=CYLINDRICAL_SURFACE('',#804,1.6);
#189=CYLINDRICAL_SURFACE('',#809,1.6);
#190=FACE_OUTER_BOUND('',#206,.T.);
#191=FACE_OUTER_BOUND('',#207,.T.);
#192=FACE_OUTER_BOUND('',#208,.T.);
#193=FACE_OUTER_BOUND('',#209,.T.);
#194=FACE_OUTER_BOUND('',#210,.T.);
#195=FACE_OUTER_BOUND('',#211,.T.);
#196=FACE_OUTER_BOUND('',#212,.T.);
#197=FACE_OUTER_BOUND('',#213,.T.);
#198=FACE_OUTER_BOUND('',#214,.T.);
#199=FACE_OUTER_BOUND('',#215,.T.);
#200=FACE_OUTER_BOUND('',#216,.T.);
#201=FACE_OUTER_BOUND('',#217,.T.);
#202=FACE_OUTER_BOUND('',#218,.T.);
#203=FACE_OUTER_BOUND('',#219,.T.);
#204=FACE_OUTER_BOUND('',#220,.T.);
#205=FACE_OUTER_BOUND('',#221,.T.);
#206=EDGE_LOOP('',(#356,#357,#358,#359));
#207=EDGE_LOOP('',(#360,#361,#362,#363));
#208=EDGE_LOOP('',(#364,#365,#366,#367));
#209=EDGE_LOOP('',(#368,#369,#370,#371));
#210=EDGE_LOOP('',(#372,#373,#374,#375));
#211=EDGE_LOOP('',(#376,#377,#378,#379));
#212=EDGE_LOOP('',(#380,#381,#382,#383));
#213=EDGE_LOOP('',(#384,#385,#386,#387));
#214=EDGE_LOOP('',(#388,#389,#390,#391));
#215=EDGE_LOOP('',(#392,#393,#394,#395));
#216=EDGE_LOOP('',(#396,#397,#398,#399));
#217=EDGE_LOOP('',(#400,#401,#402,#403));
#218=EDGE_LOOP('',(#404,#405,#406,#407));
#219=EDGE_LOOP('',(#408,#409,#410,#411));
#220=EDGE_LOOP('',(#412,#413,#414,#415));
#221=EDGE_LOOP('',(#416,#417,#418,#419));
#222=EDGE_LOOP('',(#420));
#223=EDGE_LOOP('',(#421));
#224=EDGE_LOOP('',(#422));
#225=EDGE_LOOP('',(#423));
#226=EDGE_LOOP('',(#424));
#227=EDGE_LOOP('',(#425));
#228=EDGE_LOOP('',(#426));
#229=EDGE_LOOP('',(#427));
#230=EDGE_LOOP('',(#428));
#231=EDGE_LOOP('',(#429));
#232=EDGE_LOOP('',(#430,#431,#432,#433,#434,#435,#436,#437,#438,#439,#440,
#441,#442,#443,#444,#445));
#233=EDGE_LOOP('',(#446));
#234=EDGE_LOOP('',(#447));
#235=EDGE_LOOP('',(#448));
#236=EDGE_LOOP('',(#449));
#237=EDGE_LOOP('',(#450));
#238=EDGE_LOOP('',(#451));
#239=EDGE_LOOP('',(#452));
#240=EDGE_LOOP('',(#453));
#241=EDGE_LOOP('',(#454));
#242=EDGE_LOOP('',(#455,#456,#457,#458,#459,#460,#461,#462,#463,#464,#465,
#466,#467,#468,#469,#470));
#243=EDGE_LOOP('',(#471));
#244=EDGE_LOOP('',(#472));
#245=EDGE_LOOP('',(#473));
#246=EDGE_LOOP('',(#474));
#247=EDGE_LOOP('',(#475));
#248=EDGE_LOOP('',(#476));
#249=EDGE_LOOP('',(#477));
#250=EDGE_LOOP('',(#478));
#251=EDGE_LOOP('',(#479));
#252=EDGE_LOOP('',(#480));
#253=EDGE_LOOP('',(#481));
#254=EDGE_LOOP('',(#482));
#255=EDGE_LOOP('',(#483));
#256=EDGE_LOOP('',(#484));
#257=EDGE_LOOP('',(#485));
#258=EDGE_LOOP('',(#486));
#259=EDGE_LOOP('',(#487));
#260=EDGE_LOOP('',(#488));
#261=EDGE_LOOP('',(#489));
#262=EDGE_LOOP('',(#490));
#263=EDGE_LOOP('',(#491));
#264=EDGE_LOOP('',(#492));
#265=EDGE_LOOP('',(#493));
#266=EDGE_LOOP('',(#494));
#267=EDGE_LOOP('',(#495));
#268=EDGE_LOOP('',(#496));
#269=EDGE_LOOP('',(#497));
#270=EDGE_LOOP('',(#498));
#271=EDGE_LOOP('',(#499));
#272=EDGE_LOOP('',(#500));
#273=EDGE_LOOP('',(#501));
#274=EDGE_LOOP('',(#502));
#275=EDGE_LOOP('',(#503));
#276=EDGE_LOOP('',(#504));
#277=EDGE_LOOP('',(#505));
#278=EDGE_LOOP('',(#506));
#279=EDGE_LOOP('',(#507));
#280=EDGE_LOOP('',(#508));
#281=EDGE_LOOP('',(#509));
#282=EDGE_LOOP('',(#510));
#283=EDGE_LOOP('',(#511));
#284=EDGE_LOOP('',(#512));
#285=EDGE_LOOP('',(#513));
#286=EDGE_LOOP('',(#514));
#287=EDGE_LOOP('',(#515));
#288=EDGE_LOOP('',(#516));
#289=EDGE_LOOP('',(#517));
#290=EDGE_LOOP('',(#518));
#291=EDGE_LOOP('',(#519));
#292=LINE('',#1036,#324);
#293=LINE('',#1040,#325);
#294=LINE('',#1042,#326);
#295=LINE('',#1044,#327);
#296=LINE('',#1046,#328);
#297=LINE('',#1050,#329);
#298=LINE('',#1054,#330);
#299=LINE('',#1056,#331);
#300=LINE('',#1058,#332);
#301=LINE('',#1062,#333);
#302=LINE('',#1066,#334);
#303=LINE('',#1068,#335);
#304=LINE('',#1070,#336);
#305=LINE('',#1074,#337);
#306=LINE('',#1078,#338);
#307=LINE('',#1080,#339);
#308=LINE('',#1082,#340);
#309=LINE('',#1086,#341);
#310=LINE('',#1090,#342);
#311=LINE('',#1092,#343);
#312=LINE('',#1094,#344);
#313=LINE('',#1098,#345);
#314=LINE('',#1102,#346);
#315=LINE('',#1104,#347);
#316=LINE('',#1106,#348);
#317=LINE('',#1110,#349);
#318=LINE('',#1114,#350);
#319=LINE('',#1116,#351);
#320=LINE('',#1118,#352);
#321=LINE('',#1122,#353);
#322=LINE('',#1126,#354);
#323=LINE('',#1127,#355);
#324=VECTOR('',#816,1.);
#325=VECTOR('',#819,1.);
#326=VECTOR('',#822,1.);
#327=VECTOR('',#823,1.);
#328=VECTOR('',#824,1.);
#329=VECTOR('',#829,1.);
#330=VECTOR('',#834,1.);
#331=VECTOR('',#835,1.);
#332=VECTOR('',#836,1.);
#333=VECTOR('',#841,1.);
#334=VECTOR('',#846,1.);
#335=VECTOR('',#847,1.);
#336=VECTOR('',#848,1.);
#337=VECTOR('',#853,1.);
#338=VECTOR('',#858,1.);
#339=VECTOR('',#859,1.);
#340=VECTOR('',#860,1.);
#341=VECTOR('',#865,1.);
#342=VECTOR('',#870,1.);
#343=VECTOR('',#871,1.);
#344=VECTOR('',#872,1.);
#345=VECTOR('',#877,1.);
#346=VECTOR('',#882,1.);
#347=VECTOR('',#883,1.);
#348=VECTOR('',#884,1.);
#349=VECTOR('',#889,1.);
#350=VECTOR('',#894,1.);
#351=VECTOR('',#895,1.);
#352=VECTOR('',#896,1.);
#353=VECTOR('',#901,1.);
#354=VECTOR('',#906,1.);
#355=VECTOR('',#907,1.);
#356=ORIENTED_EDGE('',*,*,#586,.T.);
#357=ORIENTED_EDGE('',*,*,#587,.F.);
#358=ORIENTED_EDGE('',*,*,#588,.F.);
#359=ORIENTED_EDGE('',*,*,#589,.T.);
#360=ORIENTED_EDGE('',*,*,#590,.T.);
#361=ORIENTED_EDGE('',*,*,#591,.F.);
#362=ORIENTED_EDGE('',*,*,#592,.F.);
#363=ORIENTED_EDGE('',*,*,#587,.T.);
#364=ORIENTED_EDGE('',*,*,#593,.T.);
#365=ORIENTED_EDGE('',*,*,#594,.F.);
#366=ORIENTED_EDGE('',*,*,#595,.F.);
#367=ORIENTED_EDGE('',*,*,#591,.T.);
#368=ORIENTED_EDGE('',*,*,#596,.T.);
#369=ORIENTED_EDGE('',*,*,#597,.F.);
#370=ORIENTED_EDGE('',*,*,#598,.F.);
#371=ORIENTED_EDGE('',*,*,#594,.T.);
#372=ORIENTED_EDGE('',*,*,#599,.T.);
#373=ORIENTED_EDGE('',*,*,#600,.F.);
#374=ORIENTED_EDGE('',*,*,#601,.F.);
#375=ORIENTED_EDGE('',*,*,#597,.T.);
#376=ORIENTED_EDGE('',*,*,#602,.T.);
#377=ORIENTED_EDGE('',*,*,#603,.F.);
#378=ORIENTED_EDGE('',*,*,#604,.F.);
#379=ORIENTED_EDGE('',*,*,#600,.T.);
#380=ORIENTED_EDGE('',*,*,#605,.T.);
#381=ORIENTED_EDGE('',*,*,#606,.F.);
#382=ORIENTED_EDGE('',*,*,#607,.F.);
#383=ORIENTED_EDGE('',*,*,#603,.T.);
#384=ORIENTED_EDGE('',*,*,#608,.T.);
#385=ORIENTED_EDGE('',*,*,#609,.F.);
#386=ORIENTED_EDGE('',*,*,#610,.F.);
#387=ORIENTED_EDGE('',*,*,#606,.T.);
#388=ORIENTED_EDGE('',*,*,#611,.T.);
#389=ORIENTED_EDGE('',*,*,#612,.F.);
#390=ORIENTED_EDGE('',*,*,#613,.F.);
#391=ORIENTED_EDGE('',*,*,#609,.T.);
#392=ORIENTED_EDGE('',*,*,#614,.T.);
#393=ORIENTED_EDGE('',*,*,#615,.F.);
#394=ORIENTED_EDGE('',*,*,#616,.F.);
#395=ORIENTED_EDGE('',*,*,#612,.T.);
#396=ORIENTED_EDGE('',*,*,#617,.T.);
#397=ORIENTED_EDGE('',*,*,#618,.F.);
#398=ORIENTED_EDGE('',*,*,#619,.F.);
#399=ORIENTED_EDGE('',*,*,#615,.T.);
#400=ORIENTED_EDGE('',*,*,#620,.T.);
#401=ORIENTED_EDGE('',*,*,#621,.F.);
#402=ORIENTED_EDGE('',*,*,#622,.F.);
#403=ORIENTED_EDGE('',*,*,#618,.T.);
#404=ORIENTED_EDGE('',*,*,#623,.T.);
#405=ORIENTED_EDGE('',*,*,#624,.F.);
#406=ORIENTED_EDGE('',*,*,#625,.F.);
#407=ORIENTED_EDGE('',*,*,#621,.T.);
#408=ORIENTED_EDGE('',*,*,#626,.T.);
#409=ORIENTED_EDGE('',*,*,#627,.F.);
#410=ORIENTED_EDGE('',*,*,#628,.F.);
#411=ORIENTED_EDGE('',*,*,#624,.T.);
#412=ORIENTED_EDGE('',*,*,#629,.T.);
#413=ORIENTED_EDGE('',*,*,#630,.F.);
#414=ORIENTED_EDGE('',*,*,#631,.F.);
#415=ORIENTED_EDGE('',*,*,#627,.T.);
#416=ORIENTED_EDGE('',*,*,#632,.T.);
#417=ORIENTED_EDGE('',*,*,#589,.F.);
#418=ORIENTED_EDGE('',*,*,#633,.F.);
#419=ORIENTED_EDGE('',*,*,#630,.T.);
#420=ORIENTED_EDGE('',*,*,#634,.T.);
#421=ORIENTED_EDGE('',*,*,#635,.F.);
#422=ORIENTED_EDGE('',*,*,#636,.F.);
#423=ORIENTED_EDGE('',*,*,#637,.F.);
#424=ORIENTED_EDGE('',*,*,#638,.F.);
#425=ORIENTED_EDGE('',*,*,#639,.F.);
#426=ORIENTED_EDGE('',*,*,#640,.F.);
#427=ORIENTED_EDGE('',*,*,#641,.F.);
#428=ORIENTED_EDGE('',*,*,#642,.F.);
#429=ORIENTED_EDGE('',*,*,#643,.F.);
#430=ORIENTED_EDGE('',*,*,#588,.T.);
#431=ORIENTED_EDGE('',*,*,#592,.T.);
#432=ORIENTED_EDGE('',*,*,#595,.T.);
#433=ORIENTED_EDGE('',*,*,#598,.T.);
#434=ORIENTED_EDGE('',*,*,#601,.T.);
#435=ORIENTED_EDGE('',*,*,#604,.T.);
#436=ORIENTED_EDGE('',*,*,#607,.T.);
#437=ORIENTED_EDGE('',*,*,#610,.T.);
#438=ORIENTED_EDGE('',*,*,#613,.T.);
#439=ORIENTED_EDGE('',*,*,#616,.T.);
#440=ORIENTED_EDGE('',*,*,#619,.T.);
#441=ORIENTED_EDGE('',*,*,#622,.T.);
#442=ORIENTED_EDGE('',*,*,#625,.T.);
#443=ORIENTED_EDGE('',*,*,#628,.T.);
#444=ORIENTED_EDGE('',*,*,#631,.T.);
#445=ORIENTED_EDGE('',*,*,#633,.T.);
#446=ORIENTED_EDGE('',*,*,#634,.F.);
#447=ORIENTED_EDGE('',*,*,#644,.T.);
#448=ORIENTED_EDGE('',*,*,#645,.T.);
#449=ORIENTED_EDGE('',*,*,#646,.T.);
#450=ORIENTED_EDGE('',*,*,#647,.T.);
#451=ORIENTED_EDGE('',*,*,#648,.T.);
#452=ORIENTED_EDGE('',*,*,#649,.T.);
#453=ORIENTED_EDGE('',*,*,#650,.T.);
#454=ORIENTED_EDGE('',*,*,#651,.T.);
#455=ORIENTED_EDGE('',*,*,#586,.F.);
#456=ORIENTED_EDGE('',*,*,#632,.F.);
#457=ORIENTED_EDGE('',*,*,#629,.F.);
#458=ORIENTED_EDGE('',*,*,#626,.F.);
#459=ORIENTED_EDGE('',*,*,#623,.F.);
#460=ORIENTED_EDGE('',*,*,#620,.F.);
#461=ORIENTED_EDGE('',*,*,#617,.F.);
#462=ORIENTED_EDGE('',*,*,#614,.F.);
#463=ORIENTED_EDGE('',*,*,#611,.F.);
#464=ORIENTED_EDGE('',*,*,#608,.F.);
#465=ORIENTED_EDGE('',*,*,#605,.F.);
#466=ORIENTED_EDGE('',*,*,#602,.F.);
#467=ORIENTED_EDGE('',*,*,#599,.F.);
#468=ORIENTED_EDGE('',*,*,#596,.F.);
#469=ORIENTED_EDGE('',*,*,#593,.F.);
#470=ORIENTED_EDGE('',*,*,#590,.F.);
#471=ORIENTED_EDGE('',*,*,#635,.T.);
#472=ORIENTED_EDGE('',*,*,#652,.T.);
#473=ORIENTED_EDGE('',*,*,#653,.T.);
#474=ORIENTED_EDGE('',*,*,#653,.F.);
#475=ORIENTED_EDGE('',*,*,#651,.F.);
#476=ORIENTED_EDGE('',*,*,#643,.T.);
#477=ORIENTED_EDGE('',*,*,#652,.F.);
#478=ORIENTED_EDGE('',*,*,#654,.T.);
#479=ORIENTED_EDGE('',*,*,#655,.T.);
#480=ORIENTED_EDGE('',*,*,#655,.F.);
#481=ORIENTED_EDGE('',*,*,#650,.F.);
#482=ORIENTED_EDGE('',*,*,#642,.T.);
#483=ORIENTED_EDGE('',*,*,#654,.F.);
#484=ORIENTED_EDGE('',*,*,#656,.T.);
#485=ORIENTED_EDGE('',*,*,#657,.T.);
#486=ORIENTED_EDGE('',*,*,#657,.F.);
#487=ORIENTED_EDGE('',*,*,#649,.F.);
#488=ORIENTED_EDGE('',*,*,#641,.T.);
#489=ORIENTED_EDGE('',*,*,#656,.F.);
#490=ORIENTED_EDGE('',*,*,#658,.T.);
#491=ORIENTED_EDGE('',*,*,#659,.T.);
#492=ORIENTED_EDGE('',*,*,#659,.F.);
#493=ORIENTED_EDGE('',*,*,#648,.F.);
#494=ORIENTED_EDGE('',*,*,#640,.T.);
#495=ORIENTED_EDGE('',*,*,#658,.F.);
#496=ORIENTED_EDGE('',*,*,#660,.T.);
#497=ORIENTED_EDGE('',*,*,#661,.T.);
#498=ORIENTED_EDGE('',*,*,#661,.F.);
#499=ORIENTED_EDGE('',*,*,#647,.F.);
#500=ORIENTED_EDGE('',*,*,#639,.T.);
#501=ORIENTED_EDGE('',*,*,#660,.F.);
#502=ORIENTED_EDGE('',*,*,#662,.T.);
#503=ORIENTED_EDGE('',*,*,#663,.T.);
#504=ORIENTED_EDGE('',*,*,#663,.F.);
#505=ORIENTED_EDGE('',*,*,#646,.F.);
#506=ORIENTED_EDGE('',*,*,#638,.T.);
#507=ORIENTED_EDGE('',*,*,#662,.F.);
#508=ORIENTED_EDGE('',*,*,#664,.T.);
#509=ORIENTED_EDGE('',*,*,#665,.T.);
#510=ORIENTED_EDGE('',*,*,#665,.F.);
#511=ORIENTED_EDGE('',*,*,#645,.F.);
#512=ORIENTED_EDGE('',*,*,#637,.T.);
#513=ORIENTED_EDGE('',*,*,#664,.F.);
#514=ORIENTED_EDGE('',*,*,#666,.T.);
#515=ORIENTED_EDGE('',*,*,#667,.T.);
#516=ORIENTED_EDGE('',*,*,#667,.F.);
#517=ORIENTED_EDGE('',*,*,#644,.F.);
#518=ORIENTED_EDGE('',*,*,#636,.T.);
#519=ORIENTED_EDGE('',*,*,#666,.F.);
#520=VERTEX_POINT('',#1034);
#521=VERTEX_POINT('',#1035);
#522=VERTEX_POINT('',#1037);
#523=VERTEX_POINT('',#1039);
#524=VERTEX_POINT('',#1043);
#525=VERTEX_POINT('',#1045);
#526=VERTEX_POINT('',#1049);
#527=VERTEX_POINT('',#1051);
#528=VERTEX_POINT('',#1055);
#529=VERTEX_POINT('',#1057);
#530=VERTEX_POINT('',#1061);
#531=VERTEX_POINT('',#1063);
#532=VERTEX_POINT('',#1067);
#533=VERTEX_POINT('',#1069);
#534=VERTEX_POINT('',#1073);
#535=VERTEX_POINT('',#1075);
#536=VERTEX_POINT('',#1079);
#537=VERTEX_POINT('',#1081);
#538=VERTEX_POINT('',#1085);
#539=VERTEX_POINT('',#1087);
#540=VERTEX_POINT('',#1091);
#541=VERTEX_POINT('',#1093);
#542=VERTEX_POINT('',#1097);
#543=VERTEX_POINT('',#1099);
#544=VERTEX_POINT('',#1103);
#545=VERTEX_POINT('',#1105);
#546=VERTEX_POINT('',#1109);
#547=VERTEX_POINT('',#1111);
#548=VERTEX_POINT('',#1115);
#549=VERTEX_POINT('',#1117);
#550=VERTEX_POINT('',#1121);
#551=VERTEX_POINT('',#1123);
#552=VERTEX_POINT('',#1130);
#553=VERTEX_POINT('',#1132);
#554=VERTEX_POINT('',#1135);
#555=VERTEX_POINT('',#1137);
#556=VERTEX_POINT('',#1139);
#557=VERTEX_POINT('',#1141);
#558=VERTEX_POINT('',#1143);
#559=VERTEX_POINT('',#1145);
#560=VERTEX_POINT('',#1147);
#561=VERTEX_POINT('',#1149);
#562=VERTEX_POINT('',#1152);
#563=VERTEX_POINT('',#1154);
#564=VERTEX_POINT('',#1156);
#565=VERTEX_POINT('',#1158);
#566=VERTEX_POINT('',#1160);
#567=VERTEX_POINT('',#1162);
#568=VERTEX_POINT('',#1164);
#569=VERTEX_POINT('',#1166);
#570=VERTEX_POINT('',#1169);
#571=VERTEX_POINT('',#1171);
#572=VERTEX_POINT('',#1176);
#573=VERTEX_POINT('',#1178);
#574=VERTEX_POINT('',#1183);
#575=VERTEX_POINT('',#1185);
#576=VERTEX_POINT('',#1190);
#577=VERTEX_POINT('',#1192);
#578=VERTEX_POINT('',#1197);
#579=VERTEX_POINT('',#1199);
#580=VERTEX_POINT('',#1204);
#581=VERTEX_POINT('',#1206);
#582=VERTEX_POINT('',#1211);
#583=VERTEX_POINT('',#1213);
#584=VERTEX_POINT('',#1218);
#585=VERTEX_POINT('',#1220);
#586=EDGE_CURVE('',#520,#521,#668,.T.);
#587=EDGE_CURVE('',#522,#521,#292,.T.);
#588=EDGE_CURVE('',#523,#522,#669,.T.);
#589=EDGE_CURVE('',#523,#520,#293,.T.);
#590=EDGE_CURVE('',#521,#524,#294,.T.);
#591=EDGE_CURVE('',#525,#524,#295,.T.);
#592=EDGE_CURVE('',#522,#525,#296,.T.);
#593=EDGE_CURVE('',#524,#526,#670,.T.);
#594=EDGE_CURVE('',#527,#526,#297,.T.);
#595=EDGE_CURVE('',#525,#527,#671,.T.);
#596=EDGE_CURVE('',#526,#528,#298,.T.);
#597=EDGE_CURVE('',#529,#528,#299,.T.);
#598=EDGE_CURVE('',#527,#529,#300,.T.);
#599=EDGE_CURVE('',#528,#530,#672,.T.);
#600=EDGE_CURVE('',#531,#530,#301,.T.);
#601=EDGE_CURVE('',#529,#531,#673,.T.);
#602=EDGE_CURVE('',#530,#532,#302,.T.);
#603=EDGE_CURVE('',#533,#532,#303,.T.);
#604=EDGE_CURVE('',#531,#533,#304,.T.);
#605=EDGE_CURVE('',#532,#534,#674,.T.);
#606=EDGE_CURVE('',#535,#534,#305,.T.);
#607=EDGE_CURVE('',#533,#535,#675,.T.);
#608=EDGE_CURVE('',#534,#536,#306,.T.);
#609=EDGE_CURVE('',#537,#536,#307,.T.);
#610=EDGE_CURVE('',#535,#537,#308,.T.);
#611=EDGE_CURVE('',#536,#538,#676,.T.);
#612=EDGE_CURVE('',#539,#538,#309,.T.);
#613=EDGE_CURVE('',#537,#539,#677,.T.);
#614=EDGE_CURVE('',#538,#540,#310,.T.);
#615=EDGE_CURVE('',#541,#540,#311,.T.);
#616=EDGE_CURVE('',#539,#541,#312,.T.);
#617=EDGE_CURVE('',#540,#542,#678,.T.);
#618=EDGE_CURVE('',#543,#542,#313,.T.);
#619=EDGE_CURVE('',#541,#543,#679,.T.);
#620=EDGE_CURVE('',#542,#544,#314,.T.);
#621=EDGE_CURVE('',#545,#544,#315,.T.);
#622=EDGE_CURVE('',#543,#545,#316,.T.);
#623=EDGE_CURVE('',#544,#546,#680,.T.);
#624=EDGE_CURVE('',#547,#546,#317,.T.);
#625=EDGE_CURVE('',#545,#547,#681,.T.);
#626=EDGE_CURVE('',#546,#548,#318,.T.);
#627=EDGE_CURVE('',#549,#548,#319,.T.);
#628=EDGE_CURVE('',#547,#549,#320,.T.);
#629=EDGE_CURVE('',#548,#550,#682,.T.);
#630=EDGE_CURVE('',#551,#550,#321,.T.);
#631=EDGE_CURVE('',#549,#551,#683,.T.);
#632=EDGE_CURVE('',#550,#520,#322,.T.);
#633=EDGE_CURVE('',#551,#523,#323,.T.);
#634=EDGE_CURVE('',#552,#552,#684,.T.);
#635=EDGE_CURVE('',#553,#553,#685,.T.);
#636=EDGE_CURVE('',#554,#554,#686,.T.);
#637=EDGE_CURVE('',#555,#555,#687,.T.);
#638=EDGE_CURVE('',#556,#556,#688,.T.);
#639=EDGE_CURVE('',#557,#557,#689,.T.);
#640=EDGE_CURVE('',#558,#558,#690,.T.);
#641=EDGE_CURVE('',#559,#559,#691,.T.);
#642=EDGE_CURVE('',#560,#560,#692,.T.);
#643=EDGE_CURVE('',#561,#561,#693,.T.);
#644=EDGE_CURVE('',#562,#562,#694,.T.);
#645=EDGE_CURVE('',#563,#563,#695,.T.);
#646=EDGE_CURVE('',#564,#564,#696,.T.);
#647=EDGE_CURVE('',#565,#565,#697,.T.);
#648=EDGE_CURVE('',#566,#566,#698,.T.);
#649=EDGE_CURVE('',#567,#567,#699,.T.);
#650=EDGE_CURVE('',#568,#568,#700,.T.);
#651=EDGE_CURVE('',#569,#569,#701,.T.);
#652=EDGE_CURVE('',#570,#570,#702,.T.);
#653=EDGE_CURVE('',#571,#571,#703,.T.);
#654=EDGE_CURVE('',#572,#572,#704,.T.);
#655=EDGE_CURVE('',#573,#573,#705,.T.);
#656=EDGE_CURVE('',#574,#574,#706,.T.);
#657=EDGE_CURVE('',#575,#575,#707,.T.);
#658=EDGE_CURVE('',#576,#576,#708,.T.);
#659=EDGE_CURVE('',#577,#577,#709,.T.);
#660=EDGE_CURVE('',#578,#578,#710,.T.);
#661=EDGE_CURVE('',#579,#579,#711,.T.);
#662=EDGE_CURVE('',#580,#580,#712,.T.);
#663=EDGE_CURVE('',#581,#581,#713,.T.);
#664=EDGE_CURVE('',#582,#582,#714,.T.);
#665=EDGE_CURVE('',#583,#583,#715,.T.);
#666=EDGE_CURVE('',#584,#584,#716,.T.);
#667=EDGE_CURVE('',#585,#585,#717,.T.);
#668=CIRCLE('',#719,4.);
#669=CIRCLE('',#720,4.);
#670=CIRCLE('',#723,5.80199039391211);
#671=CIRCLE('',#724,5.80199039391211);
#672=CIRCLE('',#727,4.);
#673=CIRCLE('',#728,4.);
#674=CIRCLE('',#731,5.80199039391211);
#675=CIRCLE('',#732,5.80199039391211);
#676=CIRCLE('',#735,4.);
#677=CIRCLE('',#736,4.);
#678=CIRCLE('',#739,5.80199039391211);
#679=CIRCLE('',#740,5.80199039391211);
#680=CIRCLE('',#743,4.);
#681=CIRCLE('',#744,4.);
#682=CIRCLE('',#747,5.80199039391211);
#683=CIRCLE('',#748,5.80199039391211);
#684=CIRCLE('',#751,4.99999999999999);
#685=CIRCLE('',#752,4.99999999999999);
#686=CIRCLE('',#754,1.9);
#687=CIRCLE('',#755,1.9);
#688=CIRCLE('',#756,1.9);
#689=CIRCLE('',#757,1.9);
#690=CIRCLE('',#758,1.9);
#691=CIRCLE('',#759,1.9);
#692=CIRCLE('',#760,1.9);
#693=CIRCLE('',#761,1.9);
#694=CIRCLE('',#763,2.5);
#695=CIRCLE('',#764,2.5);
#696=CIRCLE('',#765,2.5);
#697=CIRCLE('',#766,2.5);
#698=CIRCLE('',#767,2.5);
#699=CIRCLE('',#768,2.5);
#700=CIRCLE('',#769,2.5);
#701=CIRCLE('',#770,2.5);
#702=CIRCLE('',#772,1.6);
#703=CIRCLE('',#773,1.6);
#704=CIRCLE('',#777,1.6);
#705=CIRCLE('',#778,1.6);
#706=CIRCLE('',#782,1.6);
#707=CIRCLE('',#783,1.6);
#708=CIRCLE('',#787,1.6);
#709=CIRCLE('',#788,1.6);
#710=CIRCLE('',#792,1.6);
#711=CIRCLE('',#793,1.6);
#712=CIRCLE('',#797,1.6);
#713=CIRCLE('',#798,1.6);
#714=CIRCLE('',#802,1.6);
#715=CIRCLE('',#803,1.6);
#716=CIRCLE('',#807,1.6);
#717=CIRCLE('',#808,1.6);
#718=AXIS2_PLACEMENT_3D('',#1032,#812,#813);
#719=AXIS2_PLACEMENT_3D('',#1033,#814,#815);
#720=AXIS2_PLACEMENT_3D('',#1038,#817,#818);
#721=AXIS2_PLACEMENT_3D('',#1041,#820,#821);
#722=AXIS2_PLACEMENT_3D('',#1047,#825,#826);
#723=AXIS2_PLACEMENT_3D('',#1048,#827,#828);
#724=AXIS2_PLACEMENT_3D('',#1052,#830,#831);
#725=AXIS2_PLACEMENT_3D('',#1053,#832,#833);
#726=AXIS2_PLACEMENT_3D('',#1059,#837,#838);
#727=AXIS2_PLACEMENT_3D('',#1060,#839,#840);
#728=AXIS2_PLACEMENT_3D('',#1064,#842,#843);
#729=AXIS2_PLACEMENT_3D('',#1065,#844,#845);
#730=AXIS2_PLACEMENT_3D('',#1071,#849,#850);
#731=AXIS2_PLACEMENT_3D('',#1072,#851,#852);
#732=AXIS2_PLACEMENT_3D('',#1076,#854,#855);
#733=AXIS2_PLACEMENT_3D('',#1077,#856,#857);
#734=AXIS2_PLACEMENT_3D('',#1083,#861,#862);
#735=AXIS2_PLACEMENT_3D('',#1084,#863,#864);
#736=AXIS2_PLACEMENT_3D('',#1088,#866,#867);
#737=AXIS2_PLACEMENT_3D('',#1089,#868,#869);
#738=AXIS2_PLACEMENT_3D('',#1095,#873,#874);
#739=AXIS2_PLACEMENT_3D('',#1096,#875,#876);
#740=AXIS2_PLACEMENT_3D('',#1100,#878,#879);
#741=AXIS2_PLACEMENT_3D('',#1101,#880,#881);
#742=AXIS2_PLACEMENT_3D('',#1107,#885,#886);
#743=AXIS2_PLACEMENT_3D('',#1108,#887,#888);
#744=AXIS2_PLACEMENT_3D('',#1112,#890,#891);
#745=AXIS2_PLACEMENT_3D('',#1113,#892,#893);
#746=AXIS2_PLACEMENT_3D('',#1119,#897,#898);
#747=AXIS2_PLACEMENT_3D('',#1120,#899,#900);
#748=AXIS2_PLACEMENT_3D('',#1124,#902,#903);
#749=AXIS2_PLACEMENT_3D('',#1125,#904,#905);
#750=AXIS2_PLACEMENT_3D('',#1128,#908,#909);
#751=AXIS2_PLACEMENT_3D('',#1129,#910,#911);
#752=AXIS2_PLACEMENT_3D('',#1131,#912,#913);
#753=AXIS2_PLACEMENT_3D('',#1133,#914,#915);
#754=AXIS2_PLACEMENT_3D('',#1134,#916,#917);
#755=AXIS2_PLACEMENT_3D('',#1136,#918,#919);
#756=AXIS2_PLACEMENT_3D('',#1138,#920,#921);
#757=AXIS2_PLACEMENT_3D('',#1140,#922,#923);
#758=AXIS2_PLACEMENT_3D('',#1142,#924,#925);
#759=AXIS2_PLACEMENT_3D('',#1144,#926,#927);
#760=AXIS2_PLACEMENT_3D('',#1146,#928,#929);
#761=AXIS2_PLACEMENT_3D('',#1148,#930,#931);
#762=AXIS2_PLACEMENT_3D('',#1150,#932,#933);
#763=AXIS2_PLACEMENT_3D('',#1151,#934,#935);
#764=AXIS2_PLACEMENT_3D('',#1153,#936,#937);
#765=AXIS2_PLACEMENT_3D('',#1155,#938,#939);
#766=AXIS2_PLACEMENT_3D('',#1157,#940,#941);
#767=AXIS2_PLACEMENT_3D('',#1159,#942,#943);
#768=AXIS2_PLACEMENT_3D('',#1161,#944,#945);
#769=AXIS2_PLACEMENT_3D('',#1163,#946,#947);
#770=AXIS2_PLACEMENT_3D('',#1165,#948,#949);
#771=AXIS2_PLACEMENT_3D('',#1167,#950,#951);
#772=AXIS2_PLACEMENT_3D('',#1168,#952,#953);
#773=AXIS2_PLACEMENT_3D('',#1170,#954,#955);
#774=AXIS2_PLACEMENT_3D('',#1172,#956,#957);
#775=AXIS2_PLACEMENT_3D('',#1173,#958,#959);
#776=AXIS2_PLACEMENT_3D('',#1174,#960,#961);
#777=AXIS2_PLACEMENT_3D('',#1175,#962,#963);
#778=AXIS2_PLACEMENT_3D('',#1177,#964,#965);
#779=AXIS2_PLACEMENT_3D('',#1179,#966,#967);
#780=AXIS2_PLACEMENT_3D('',#1180,#968,#969);
#781=AXIS2_PLACEMENT_3D('',#1181,#970,#971);
#782=AXIS2_PLACEMENT_3D('',#1182,#972,#973);
#783=AXIS2_PLACEMENT_3D('',#1184,#974,#975);
#784=AXIS2_PLACEMENT_3D('',#1186,#976,#977);
#785=AXIS2_PLACEMENT_3D('',#1187,#978,#979);
#786=AXIS2_PLACEMENT_3D('',#1188,#980,#981);
#787=AXIS2_PLACEMENT_3D('',#1189,#982,#983);
#788=AXIS2_PLACEMENT_3D('',#1191,#984,#985);
#789=AXIS2_PLACEMENT_3D('',#1193,#986,#987);
#790=AXIS2_PLACEMENT_3D('',#1194,#988,#989);
#791=AXIS2_PLACEMENT_3D('',#1195,#990,#991);
#792=AXIS2_PLACEMENT_3D('',#1196,#992,#993);
#793=AXIS2_PLACEMENT_3D('',#1198,#994,#995);
#794=AXIS2_PLACEMENT_3D('',#1200,#996,#997);
#795=AXIS2_PLACEMENT_3D('',#1201,#998,#999);
#796=AXIS2_PLACEMENT_3D('',#1202,#1000,#1001);
#797=AXIS2_PLACEMENT_3D('',#1203,#1002,#1003);
#798=AXIS2_PLACEMENT_3D('',#1205,#1004,#1005);
#799=AXIS2_PLACEMENT_3D('',#1207,#1006,#1007);
#800=AXIS2_PLACEMENT_3D('',#1208,#1008,#1009);
#801=AXIS2_PLACEMENT_3D('',#1209,#1010,#1011);
#802=AXIS2_PLACEMENT_3D('',#1210,#1012,#1013);
#803=AXIS2_PLACEMENT_3D('',#1212,#1014,#1015);
#804=AXIS2_PLACEMENT_3D('',#1214,#1016,#1017);
#805=AXIS2_PLACEMENT_3D('',#1215,#1018,#1019);
#806=AXIS2_PLACEMENT_3D('',#1216,#1020,#1021);
#807=AXIS2_PLACEMENT_3D('',#1217,#1022,#1023);
#808=AXIS2_PLACEMENT_3D('',#1219,#1024,#1025);
#809=AXIS2_PLACEMENT_3D('',#1221,#1026,#1027);
#810=AXIS2_PLACEMENT_3D('',#1222,#1028,#1029);
#811=AXIS2_PLACEMENT_3D('',#1223,#1030,#1031);
#812=DIRECTION('',(0.,0.,1.));
#813=DIRECTION('',(1.,0.,0.));
#814=DIRECTION('',(0.,0.,1.));
#815=DIRECTION('',(-1.,0.,0.));
#816=DIRECTION('',(0.,0.,-1.));
#817=DIRECTION('',(0.,0.,1.));
#818=DIRECTION('',(-1.,0.,0.));
#819=DIRECTION('',(0.,0.,-1.));
#820=DIRECTION('',(0.,0.,-1.));
#821=DIRECTION('',(-1.,0.,0.));
#822=DIRECTION('',(0.70710678118654,0.707106781186555,0.));
#823=DIRECTION('',(0.,0.,-1.));
#824=DIRECTION('',(0.70710678118654,0.707106781186555,0.));
#825=DIRECTION('',(-0.707106781186555,0.70710678118654,0.));
#826=DIRECTION('',(-0.70710678118654,-0.707106781186555,0.));
#827=DIRECTION('',(0.,0.,-1.));
#828=DIRECTION('',(0.,-1.,0.));
#829=DIRECTION('',(0.,0.,-1.));
#830=DIRECTION('',(0.,0.,-1.));
#831=DIRECTION('',(0.,-1.,0.));
#832=DIRECTION('',(0.,0.,-1.));
#833=DIRECTION('',(-0.999999999999999,0.,0.));
#834=DIRECTION('',(0.707106781186554,-0.707106781186541,0.));
#835=DIRECTION('',(0.,0.,-1.));
#836=DIRECTION('',(0.707106781186554,-0.707106781186541,0.));
#837=DIRECTION('',(0.707106781186541,0.707106781186554,0.));
#838=DIRECTION('',(-0.707106781186554,0.707106781186541,0.));
#839=DIRECTION('',(0.,0.,1.));
#840=DIRECTION('',(0.,-1.,0.));
#841=DIRECTION('',(0.,0.,-1.));
#842=DIRECTION('',(0.,0.,1.));
#843=DIRECTION('',(0.,-1.,0.));
#844=DIRECTION('',(0.,0.,-1.));
#845=DIRECTION('',(-1.,0.,0.));
#846=DIRECTION('',(-0.707106781186555,0.70710678118654,0.));
#847=DIRECTION('',(0.,0.,-1.));
#848=DIRECTION('',(-0.707106781186555,0.70710678118654,0.));
#849=DIRECTION('',(-0.70710678118654,-0.707106781186555,0.));
#850=DIRECTION('',(0.707106781186555,-0.70710678118654,0.));
#851=DIRECTION('',(0.,0.,-1.));
#852=DIRECTION('',(0.999999999999999,1.22464679914737E-16,0.));
#853=DIRECTION('',(0.,0.,-1.));
#854=DIRECTION('',(0.,0.,-1.));
#855=DIRECTION('',(0.999999999999999,1.22464679914737E-16,0.));
#856=DIRECTION('',(0.,0.,-1.));
#857=DIRECTION('',(-0.999999999999999,0.,0.));
#858=DIRECTION('',(0.707106781186543,0.707106781186552,0.));
#859=DIRECTION('',(0.,0.,-1.));
#860=DIRECTION('',(0.707106781186543,0.707106781186552,0.));
#861=DIRECTION('',(-0.707106781186552,0.707106781186543,0.));
#862=DIRECTION('',(-0.707106781186543,-0.707106781186552,0.));
#863=DIRECTION('',(0.,0.,1.));
#864=DIRECTION('',(1.,0.,0.));
#865=DIRECTION('',(0.,0.,-1.));
#866=DIRECTION('',(0.,0.,1.));
#867=DIRECTION('',(1.,0.,0.));
#868=DIRECTION('',(0.,0.,-1.));
#869=DIRECTION('',(-1.,0.,0.));
#870=DIRECTION('',(-0.70710678118654,-0.707106781186555,0.));
#871=DIRECTION('',(0.,0.,-1.));
#872=DIRECTION('',(-0.70710678118654,-0.707106781186555,0.));
#873=DIRECTION('',(0.707106781186555,-0.70710678118654,0.));
#874=DIRECTION('',(0.70710678118654,0.707106781186555,0.));
#875=DIRECTION('',(0.,0.,-1.));
#876=DIRECTION('',(0.,1.,0.));
#877=DIRECTION('',(0.,0.,-1.));
#878=DIRECTION('',(0.,0.,-1.));
#879=DIRECTION('',(0.,1.,0.));
#880=DIRECTION('',(0.,0.,-1.));
#881=DIRECTION('',(-0.999999999999999,0.,0.));
#882=DIRECTION('',(-0.707106781186553,0.707106781186542,0.));
#883=DIRECTION('',(0.,0.,-1.));
#884=DIRECTION('',(-0.707106781186553,0.707106781186542,0.));
#885=DIRECTION('',(-0.707106781186542,-0.707106781186554,0.));
#886=DIRECTION('',(0.707106781186554,-0.707106781186542,0.));
#887=DIRECTION('',(0.,0.,1.));
#888=DIRECTION('',(0.,1.,0.));
#889=DIRECTION('',(0.,0.,-1.));
#890=DIRECTION('',(0.,0.,1.));
#891=DIRECTION('',(0.,1.,0.));
#892=DIRECTION('',(0.,0.,-1.));
#893=DIRECTION('',(-1.,0.,0.));
#894=DIRECTION('',(0.707106781186555,-0.70710678118654,0.));
#895=DIRECTION('',(0.,0.,-1.));
#896=DIRECTION('',(0.707106781186555,-0.70710678118654,0.));
#897=DIRECTION('',(0.70710678118654,0.707106781186555,0.));
#898=DIRECTION('',(-0.707106781186555,0.70710678118654,0.));
#899=DIRECTION('',(0.,0.,-1.));
#900=DIRECTION('',(-1.,0.,0.));
#901=DIRECTION('',(0.,0.,-1.));
#902=DIRECTION('',(0.,0.,-1.));
#903=DIRECTION('',(-1.,0.,0.));
#904=DIRECTION('',(0.,0.,-1.));
#905=DIRECTION('',(-1.,0.,0.));
#906=DIRECTION('',(-0.707106781186542,-0.707106781186553,0.));
#907=DIRECTION('',(-0.707106781186542,-0.707106781186553,0.));
#908=DIRECTION('',(0.707106781186553,-0.707106781186542,0.));
#909=DIRECTION('',(0.707106781186542,0.707106781186553,0.));
#910=DIRECTION('',(0.,0.,1.));
#911=DIRECTION('',(1.,0.,0.));
#912=DIRECTION('',(0.,0.,1.));
#913=DIRECTION('',(1.,0.,0.));
#914=DIRECTION('',(0.,0.,-1.));
#915=DIRECTION('',(-1.,0.,0.));
#916=DIRECTION('',(0.,0.,1.));
#917=DIRECTION('',(0.999999999999999,0.,0.));
#918=DIRECTION('',(0.,0.,1.));
#919=DIRECTION('',(0.999999999999999,0.,0.));
#920=DIRECTION('',(0.,0.,1.));
#921=DIRECTION('',(0.999999999999999,0.,0.));
#922=DIRECTION('',(0.,0.,1.));
#923=DIRECTION('',(0.999999999999999,0.,0.));
#924=DIRECTION('',(0.,0.,1.));
#925=DIRECTION('',(0.999999999999999,0.,0.));
#926=DIRECTION('',(0.,0.,1.));
#927=DIRECTION('',(0.999999999999999,0.,0.));
#928=DIRECTION('',(0.,0.,1.));
#929=DIRECTION('',(0.999999999999999,0.,0.));
#930=DIRECTION('',(0.,0.,1.));
#931=DIRECTION('',(0.999999999999999,0.,0.));
#932=DIRECTION('',(0.,0.,1.));
#933=DIRECTION('',(1.,0.,0.));
#934=DIRECTION('',(0.,0.,1.));
#935=DIRECTION('',(1.,0.,0.));
#936=DIRECTION('',(0.,0.,1.));
#937=DIRECTION('',(1.,0.,0.));
#938=DIRECTION('',(0.,0.,1.));
#939=DIRECTION('',(1.,0.,0.));
#940=DIRECTION('',(0.,0.,1.));
#941=DIRECTION('',(1.,0.,0.));
#942=DIRECTION('',(0.,0.,1.));
#943=DIRECTION('',(1.,0.,0.));
#944=DIRECTION('',(0.,0.,1.));
#945=DIRECTION('',(1.,0.,0.));
#946=DIRECTION('',(0.,0.,1.));
#947=DIRECTION('',(1.,0.,0.));
#948=DIRECTION('',(0.,0.,1.));
#949=DIRECTION('',(1.,0.,0.));
#950=DIRECTION('',(0.,0.,1.));
#951=DIRECTION('',(1.,0.,0.));
#952=DIRECTION('',(0.,0.,1.));
#953=DIRECTION('',(1.,0.,0.));
#954=DIRECTION('',(0.,0.,-1.));
#955=DIRECTION('',(1.,0.,0.));
#956=DIRECTION('',(0.,0.,1.));
#957=DIRECTION('',(1.,0.,0.));
#958=DIRECTION('',(0.,0.,-1.));
#959=DIRECTION('',(-1.,0.,0.));
#960=DIRECTION('',(0.,0.,1.));
#961=DIRECTION('',(1.,0.,-8.66006485272798E-18));
#962=DIRECTION('',(0.,0.,1.));
#963=DIRECTION('',(1.,0.,0.));
#964=DIRECTION('',(0.,0.,-1.));
#965=DIRECTION('',(1.,0.,0.));
#966=DIRECTION('',(0.,0.,1.));
#967=DIRECTION('',(1.,0.,0.));
#968=DIRECTION('',(0.,0.,-1.));
#969=DIRECTION('',(-1.,0.,0.));
#970=DIRECTION('',(0.,0.,1.));
#971=DIRECTION('',(1.,0.,-8.66006485272798E-18));
#972=DIRECTION('',(0.,0.,1.));
#973=DIRECTION('',(1.,0.,0.));
#974=DIRECTION('',(0.,0.,-1.));
#975=DIRECTION('',(1.,0.,0.));
#976=DIRECTION('',(0.,0.,1.));
#977=DIRECTION('',(1.,0.,0.));
#978=DIRECTION('',(0.,0.,-1.));
#979=DIRECTION('',(-1.,0.,0.));
#980=DIRECTION('',(0.,0.,1.));
#981=DIRECTION('',(1.,0.,-8.66006485272798E-18));
#982=DIRECTION('',(0.,0.,1.));
#983=DIRECTION('',(1.,0.,0.));
#984=DIRECTION('',(0.,0.,-1.));
#985=DIRECTION('',(1.,0.,0.));
#986=DIRECTION('',(0.,0.,1.));
#987=DIRECTION('',(1.,0.,0.));
#988=DIRECTION('',(0.,0.,-1.));
#989=DIRECTION('',(-1.,0.,0.));
#990=DIRECTION('',(0.,0.,1.));
#991=DIRECTION('',(1.,0.,-8.66006485272798E-18));
#992=DIRECTION('',(0.,0.,1.));
#993=DIRECTION('',(1.,0.,0.));
#994=DIRECTION('',(0.,0.,-1.));
#995=DIRECTION('',(1.,0.,0.));
#996=DIRECTION('',(0.,0.,1.));
#997=DIRECTION('',(1.,0.,0.));
#998=DIRECTION('',(0.,0.,-1.));
#999=DIRECTION('',(-1.,0.,0.));
#1000=DIRECTION('',(0.,0.,1.));
#1001=DIRECTION('',(1.,0.,-8.66006485272798E-18));
#1002=DIRECTION('',(0.,0.,1.));
#1003=DIRECTION('',(1.,0.,0.));
#1004=DIRECTION('',(0.,0.,-1.));
#1005=DIRECTION('',(1.,0.,0.));
#1006=DIRECTION('',(0.,0.,1.));
#1007=DIRECTION('',(1.,0.,0.));
#1008=DIRECTION('',(0.,0.,-1.));
#1009=DIRECTION('',(-1.,0.,0.));
#1010=DIRECTION('',(0.,0.,1.));
#1011=DIRECTION('',(1.,0.,-8.66006485272798E-18));
#1012=DIRECTION('',(0.,0.,1.));
#1013=DIRECTION('',(1.,0.,0.));
#1014=DIRECTION('',(0.,0.,-1.));
#1015=DIRECTION('',(1.,0.,0.));
#1016=DIRECTION('',(0.,0.,1.));
#1017=DIRECTION('',(1.,0.,0.));
#1018=DIRECTION('',(0.,0.,-1.));
#1019=DIRECTION('',(-1.,0.,0.));
#1020=DIRECTION('',(0.,0.,1.));
#1021=DIRECTION('',(1.,0.,-8.66006485272798E-18));
#1022=DIRECTION('',(0.,0.,1.));
#1023=DIRECTION('',(1.,0.,0.));
#1024=DIRECTION('',(0.,0.,-1.));
#1025=DIRECTION('',(1.,0.,0.));
#1026=DIRECTION('',(0.,0.,1.));
#1027=DIRECTION('',(1.,0.,0.));
#1028=DIRECTION('',(0.,0.,-1.));
#1029=DIRECTION('',(-1.,0.,0.));
#1030=DIRECTION('',(0.,0.,1.));
#1031=DIRECTION('',(1.,0.,-8.66006485272798E-18));
#1032=CARTESIAN_POINT('',(0.,0.,0.));
#1033=CARTESIAN_POINT('',(62.6507575950826,-14.8492424049177,0.));
#1034=CARTESIAN_POINT('',(59.8223304703364,-12.0208152801715,0.));
#1035=CARTESIAN_POINT('',(65.4791847198287,-17.677669529664,0.));
#1036=CARTESIAN_POINT('',(65.4791847198287,-17.677669529664,2.));
#1037=CARTESIAN_POINT('',(65.4791847198287,-17.677669529664,2.));
#1038=CARTESIAN_POINT('',(62.6507575950826,-14.8492424049177,2.));
#1039=CARTESIAN_POINT('',(59.8223304703364,-12.0208152801715,2.));
#1040=CARTESIAN_POINT('',(59.8223304703364,-12.0208152801715,2.));
#1041=CARTESIAN_POINT('',(62.6507575950826,-14.8492424049177,2.));
#1042=CARTESIAN_POINT('',(65.4791847198289,-17.6776695296642,0.));
#1043=CARTESIAN_POINT('',(73.3973732480859,-9.75948100140703,0.));
#1044=CARTESIAN_POINT('',(73.3973732480859,-9.75948100140703,2.));
#1045=CARTESIAN_POINT('',(73.3973732480859,-9.75948100140703,2.));
#1046=CARTESIAN_POINT('',(65.4791847198289,-17.6776695296642,2.));
#1047=CARTESIAN_POINT('',(65.4791847198289,-17.6776695296642,2.));
#1048=CARTESIAN_POINT('',(77.5000000000004,-13.8621077533214,0.));
#1049=CARTESIAN_POINT('',(81.6026267519148,-9.75948100140696,0.));
#1050=CARTESIAN_POINT('',(81.6026267519148,-9.75948100140696,2.));
#1051=CARTESIAN_POINT('',(81.6026267519148,-9.75948100140696,2.));
#1052=CARTESIAN_POINT('',(77.5000000000004,-13.8621077533214,2.));
#1053=CARTESIAN_POINT('',(77.5000000000004,-13.8621077533214,2.));
#1054=CARTESIAN_POINT('',(81.6026267519148,-9.75948100140695,0.));
#1055=CARTESIAN_POINT('',(89.5208152801716,-17.6776695296636,0.));
#1056=CARTESIAN_POINT('',(89.5208152801716,-17.6776695296636,2.));
#1057=CARTESIAN_POINT('',(89.5208152801716,-17.6776695296636,2.));
#1058=CARTESIAN_POINT('',(81.6026267519148,-9.75948100140695,2.));
#1059=CARTESIAN_POINT('',(81.6026267519148,-9.75948100140695,2.));
#1060=CARTESIAN_POINT('',(92.3492424049178,-14.8492424049174,0.));
#1061=CARTESIAN_POINT('',(95.1776695296641,-12.0208152801713,0.));
#1062=CARTESIAN_POINT('',(95.1776695296641,-12.0208152801713,2.));
#1063=CARTESIAN_POINT('',(95.1776695296641,-12.0208152801713,2.));
#1064=CARTESIAN_POINT('',(92.3492424049178,-14.8492424049174,2.));
#1065=CARTESIAN_POINT('',(92.3492424049178,-14.8492424049174,2.));
#1066=CARTESIAN_POINT('',(95.1776695296641,-12.0208152801713,0.));
#1067=CARTESIAN_POINT('',(87.259481001407,-4.10262675191437,0.));
#1068=CARTESIAN_POINT('',(87.259481001407,-4.10262675191437,2.));
#1069=CARTESIAN_POINT('',(87.259481001407,-4.10262675191437,2.));
#1070=CARTESIAN_POINT('',(95.1776695296641,-12.0208152801713,2.));
#1071=CARTESIAN_POINT('',(95.1776695296641,-12.0208152801713,2.));
#1072=CARTESIAN_POINT('',(91.3621077533214,1.27259314197659E-13,0.));
#1073=CARTESIAN_POINT('',(87.259481001407,4.10262675191456,0.));
#1074=CARTESIAN_POINT('',(87.259481001407,4.10262675191456,2.));
#1075=CARTESIAN_POINT('',(87.259481001407,4.10262675191456,2.));
#1076=CARTESIAN_POINT('',(91.3621077533214,1.27259314197659E-13,2.));
#1077=CARTESIAN_POINT('',(91.3621077533214,1.27259314197659E-13,2.));
#1078=CARTESIAN_POINT('',(87.259481001407,4.10262675191455,0.));
#1079=CARTESIAN_POINT('',(95.1776695296636,12.0208152801713,0.));
#1080=CARTESIAN_POINT('',(95.1776695296636,12.0208152801713,2.));
#1081=CARTESIAN_POINT('',(95.1776695296636,12.0208152801713,2.));
#1082=CARTESIAN_POINT('',(87.259481001407,4.10262675191455,2.));
#1083=CARTESIAN_POINT('',(87.259481001407,4.10262675191455,2.));
#1084=CARTESIAN_POINT('',(92.3492424049174,14.8492424049176,0.));
#1085=CARTESIAN_POINT('',(89.5208152801713,17.6776695296638,0.));
#1086=CARTESIAN_POINT('',(89.5208152801713,17.6776695296638,2.));
#1087=CARTESIAN_POINT('',(89.5208152801713,17.6776695296638,2.));
#1088=CARTESIAN_POINT('',(92.3492424049174,14.8492424049176,2.));
#1089=CARTESIAN_POINT('',(92.3492424049174,14.8492424049176,2.));
#1090=CARTESIAN_POINT('',(89.5208152801711,17.677669529664,0.));
#1091=CARTESIAN_POINT('',(81.6026267519143,9.75948100140703,0.));
#1092=CARTESIAN_POINT('',(81.6026267519143,9.75948100140703,2.));
#1093=CARTESIAN_POINT('',(81.6026267519143,9.75948100140703,2.));
#1094=CARTESIAN_POINT('',(89.5208152801711,17.677669529664,2.));
#1095=CARTESIAN_POINT('',(89.5208152801711,17.677669529664,2.));
#1096=CARTESIAN_POINT('',(77.4999999999998,13.8621077533214,0.));
#1097=CARTESIAN_POINT('',(73.3973732480854,9.75948100140693,0.));
#1098=CARTESIAN_POINT('',(73.3973732480854,9.75948100140693,2.));
#1099=CARTESIAN_POINT('',(73.3973732480854,9.75948100140693,2.));
#1100=CARTESIAN_POINT('',(77.4999999999998,13.8621077533214,2.));
#1101=CARTESIAN_POINT('',(77.4999999999998,13.8621077533214,2.));
#1102=CARTESIAN_POINT('',(73.3973732480854,9.75948100140694,0.));
#1103=CARTESIAN_POINT('',(65.4791847198286,17.6776695296636,0.));
#1104=CARTESIAN_POINT('',(65.4791847198286,17.6776695296636,2.));
#1105=CARTESIAN_POINT('',(65.4791847198286,17.6776695296636,2.));
#1106=CARTESIAN_POINT('',(73.3973732480854,9.75948100140694,2.));
#1107=CARTESIAN_POINT('',(73.3973732480854,9.75948100140694,2.));
#1108=CARTESIAN_POINT('',(62.6507575950823,14.8492424049174,0.));
#1109=CARTESIAN_POINT('',(59.8223304703361,12.0208152801713,0.));
#1110=CARTESIAN_POINT('',(59.8223304703361,12.0208152801713,2.));
#1111=CARTESIAN_POINT('',(59.8223304703361,12.0208152801713,2.));
#1112=CARTESIAN_POINT('',(62.6507575950823,14.8492424049174,2.));
#1113=CARTESIAN_POINT('',(62.6507575950823,14.8492424049174,2.));
#1114=CARTESIAN_POINT('',(59.8223304703359,12.0208152801711,0.));
#1115=CARTESIAN_POINT('',(67.740518998593,4.10262675191419,0.));
#1116=CARTESIAN_POINT('',(67.740518998593,4.10262675191419,2.));
#1117=CARTESIAN_POINT('',(67.740518998593,4.10262675191419,2.));
#1118=CARTESIAN_POINT('',(59.8223304703359,12.0208152801711,2.));
#1119=CARTESIAN_POINT('',(59.8223304703359,12.0208152801711,2.));
#1120=CARTESIAN_POINT('',(63.6378922466786,-3.08695942213904E-13,0.));
#1121=CARTESIAN_POINT('',(67.7405189985931,-4.10262675191474,0.));
#1122=CARTESIAN_POINT('',(67.7405189985931,-4.10262675191474,2.));
#1123=CARTESIAN_POINT('',(67.7405189985931,-4.10262675191474,2.));
#1124=CARTESIAN_POINT('',(63.6378922466786,-3.08695942213904E-13,2.));
#1125=CARTESIAN_POINT('',(63.6378922466786,-3.08695942213904E-13,2.));
#1126=CARTESIAN_POINT('',(67.7405189985931,-4.10262675191473,0.));
#1127=CARTESIAN_POINT('',(67.7405189985931,-4.10262675191473,2.));
#1128=CARTESIAN_POINT('',(67.7405189985931,-4.10262675191473,2.));
#1129=CARTESIAN_POINT('',(77.5,1.42398112988694E-14,2.));
#1130=CARTESIAN_POINT('',(82.5,1.42398112988694E-14,2.));
#1131=CARTESIAN_POINT('',(77.5,1.42398112988694E-14,0.));
#1132=CARTESIAN_POINT('',(82.5,1.42398112988694E-14,0.));
#1133=CARTESIAN_POINT('',(77.5,1.42398112988694E-14,2.));
#1134=CARTESIAN_POINT('',(92.3492424049175,-14.8492424049175,2.));
#1135=CARTESIAN_POINT('',(94.2492424049175,-14.8492424049175,2.));
#1136=CARTESIAN_POINT('',(62.6507575950826,-14.8492424049177,2.));
#1137=CARTESIAN_POINT('',(64.5507575950826,-14.8492424049177,2.));
#1138=CARTESIAN_POINT('',(92.3492424049174,14.8492424049176,2.));
#1139=CARTESIAN_POINT('',(94.2492424049174,14.8492424049176,2.));
#1140=CARTESIAN_POINT('',(62.6507575950825,14.8492424049175,2.));
#1141=CARTESIAN_POINT('',(64.5507575950825,14.8492424049175,2.));
#1142=CARTESIAN_POINT('',(84.2175144212722,-6.71751442127222,2.));
#1143=CARTESIAN_POINT('',(86.1175144212722,-6.71751442127222,2.));
#1144=CARTESIAN_POINT('',(83.1568542494924,5.65685424949237,2.));
#1145=CARTESIAN_POINT('',(85.0568542494924,5.65685424949237,2.));
#1146=CARTESIAN_POINT('',(70.7824855787278,6.71751442127221,2.));
#1147=CARTESIAN_POINT('',(72.6824855787278,6.71751442127221,2.));
#1148=CARTESIAN_POINT('',(71.8431457505076,-5.65685424949238,2.));
#1149=CARTESIAN_POINT('',(73.7431457505076,-5.65685424949238,2.));
#1150=CARTESIAN_POINT('',(62.6507575950826,-14.8492424049177,2.));
#1151=CARTESIAN_POINT('',(92.3492424049175,-14.8492424049175,0.));
#1152=CARTESIAN_POINT('',(94.8492424049175,-14.8492424049175,0.));
#1153=CARTESIAN_POINT('',(62.6507575950826,-14.8492424049177,0.));
#1154=CARTESIAN_POINT('',(65.1507575950826,-14.8492424049177,0.));
#1155=CARTESIAN_POINT('',(92.3492424049174,14.8492424049176,0.));
#1156=CARTESIAN_POINT('',(94.8492424049174,14.8492424049176,0.));
#1157=CARTESIAN_POINT('',(62.6507575950825,14.8492424049175,0.));
#1158=CARTESIAN_POINT('',(65.1507575950825,14.8492424049175,0.));
#1159=CARTESIAN_POINT('',(84.2175144212722,-6.71751442127222,0.));
#1160=CARTESIAN_POINT('',(86.7175144212722,-6.71751442127222,0.));
#1161=CARTESIAN_POINT('',(83.1568542494924,5.65685424949237,0.));
#1162=CARTESIAN_POINT('',(85.6568542494924,5.65685424949237,0.));
#1163=CARTESIAN_POINT('',(70.7824855787278,6.71751442127221,0.));
#1164=CARTESIAN_POINT('',(73.2824855787278,6.71751442127221,0.));
#1165=CARTESIAN_POINT('',(71.8431457505076,-5.65685424949238,0.));
#1166=CARTESIAN_POINT('',(74.3431457505076,-5.65685424949238,0.));
#1167=CARTESIAN_POINT('',(62.6507575950826,-14.8492424049177,0.));
#1168=CARTESIAN_POINT('',(71.8431457505076,-5.65685424949238,1.7));
#1169=CARTESIAN_POINT('',(73.4431457505076,-5.65685424949238,1.7));
#1170=CARTESIAN_POINT('',(71.8431457505076,-5.65685424949238,0.9));
#1171=CARTESIAN_POINT('',(73.4431457505076,-5.65685424949238,0.9));
#1172=CARTESIAN_POINT('',(71.8431457505076,-5.65685424949238,2.));
#1173=CARTESIAN_POINT('',(71.8431457505076,-5.65685424949238,0.));
#1174=CARTESIAN_POINT('',(71.8431457505076,-5.65685424949238,0.0999999999999976));
#1175=CARTESIAN_POINT('',(70.7824855787278,6.71751442127221,1.7));
#1176=CARTESIAN_POINT('',(72.3824855787278,6.71751442127221,1.7));
#1177=CARTESIAN_POINT('',(70.7824855787278,6.71751442127221,0.9));
#1178=CARTESIAN_POINT('',(72.3824855787278,6.71751442127221,0.9));
#1179=CARTESIAN_POINT('',(70.7824855787278,6.71751442127221,2.));
#1180=CARTESIAN_POINT('',(70.7824855787278,6.71751442127221,0.));
#1181=CARTESIAN_POINT('',(70.7824855787278,6.71751442127221,0.0999999999999976));
#1182=CARTESIAN_POINT('',(83.1568542494924,5.65685424949237,1.7));
#1183=CARTESIAN_POINT('',(84.7568542494924,5.65685424949237,1.7));
#1184=CARTESIAN_POINT('',(83.1568542494924,5.65685424949237,0.9));
#1185=CARTESIAN_POINT('',(84.7568542494924,5.65685424949237,0.9));
#1186=CARTESIAN_POINT('',(83.1568542494924,5.65685424949237,2.));
#1187=CARTESIAN_POINT('',(83.1568542494924,5.65685424949237,0.));
#1188=CARTESIAN_POINT('',(83.1568542494924,5.65685424949237,0.0999999999999976));
#1189=CARTESIAN_POINT('',(84.2175144212722,-6.71751442127222,1.7));
#1190=CARTESIAN_POINT('',(85.8175144212722,-6.71751442127222,1.7));
#1191=CARTESIAN_POINT('',(84.2175144212722,-6.71751442127222,0.9));
#1192=CARTESIAN_POINT('',(85.8175144212722,-6.71751442127222,0.9));
#1193=CARTESIAN_POINT('',(84.2175144212722,-6.71751442127222,2.));
#1194=CARTESIAN_POINT('',(84.2175144212722,-6.71751442127222,0.));
#1195=CARTESIAN_POINT('',(84.2175144212722,-6.71751442127222,0.0999999999999976));
#1196=CARTESIAN_POINT('',(62.6507575950825,14.8492424049175,1.7));
#1197=CARTESIAN_POINT('',(64.2507575950825,14.8492424049175,1.7));
#1198=CARTESIAN_POINT('',(62.6507575950825,14.8492424049175,0.9));
#1199=CARTESIAN_POINT('',(64.2507575950825,14.8492424049175,0.9));
#1200=CARTESIAN_POINT('',(62.6507575950825,14.8492424049175,2.));
#1201=CARTESIAN_POINT('',(62.6507575950825,14.8492424049175,0.));
#1202=CARTESIAN_POINT('',(62.6507575950825,14.8492424049175,0.0999999999999976));
#1203=CARTESIAN_POINT('',(92.3492424049174,14.8492424049176,1.7));
#1204=CARTESIAN_POINT('',(93.9492424049174,14.8492424049176,1.7));
#1205=CARTESIAN_POINT('',(92.3492424049174,14.8492424049176,0.9));
#1206=CARTESIAN_POINT('',(93.9492424049174,14.8492424049176,0.9));
#1207=CARTESIAN_POINT('',(92.3492424049174,14.8492424049176,2.));
#1208=CARTESIAN_POINT('',(92.3492424049174,14.8492424049176,0.));
#1209=CARTESIAN_POINT('',(92.3492424049174,14.8492424049176,0.0999999999999976));
#1210=CARTESIAN_POINT('',(62.6507575950826,-14.8492424049177,1.7));
#1211=CARTESIAN_POINT('',(64.2507575950826,-14.8492424049177,1.7));
#1212=CARTESIAN_POINT('',(62.6507575950826,-14.8492424049177,0.9));
#1213=CARTESIAN_POINT('',(64.2507575950826,-14.8492424049177,0.9));
#1214=CARTESIAN_POINT('',(62.6507575950826,-14.8492424049177,2.));
#1215=CARTESIAN_POINT('',(62.6507575950826,-14.8492424049177,0.));
#1216=CARTESIAN_POINT('',(62.6507575950826,-14.8492424049177,0.0999999999999976));
#1217=CARTESIAN_POINT('',(92.3492424049175,-14.8492424049175,1.7));
#1218=CARTESIAN_POINT('',(93.9492424049175,-14.8492424049175,1.7));
#1219=CARTESIAN_POINT('',(92.3492424049175,-14.8492424049175,0.9));
#1220=CARTESIAN_POINT('',(93.9492424049175,-14.8492424049175,0.9));
#1221=CARTESIAN_POINT('',(92.3492424049175,-14.8492424049175,2.));
#1222=CARTESIAN_POINT('',(92.3492424049175,-14.8492424049175,0.));
#1223=CARTESIAN_POINT('',(92.3492424049175,-14.8492424049175,0.0999999999999976));
#1224=MECHANICAL_DESIGN_GEOMETRIC_PRESENTATION_REPRESENTATION('',(#24),
#1225);
#1225=(
GEOMETRIC_REPRESENTATION_CONTEXT(3)
GLOBAL_UNCERTAINTY_ASSIGNED_CONTEXT((#1226))
GLOBAL_UNIT_ASSIGNED_CONTEXT((#1232,#1228,#1227))
REPRESENTATION_CONTEXT('X-Mount','TOP_LEVEL_ASSEMBLY_PART')
);
#1226=UNCERTAINTY_MEASURE_WITH_UNIT(LENGTH_MEASURE(2.E-5),#1232,
'DISTANCE_ACCURACY_VALUE','Maximum Tolerance applied to model');
#1227=(
NAMED_UNIT(*)
SI_UNIT($,.STERADIAN.)
SOLID_ANGLE_UNIT()
);
#1228=(
CONVERSION_BASED_UNIT('DEGREE',#1230)
NAMED_UNIT(#1229)
PLANE_ANGLE_UNIT()
);
#1229=DIMENSIONAL_EXPONENTS(0.,0.,0.,0.,0.,0.,0.);
#1230=PLANE_ANGLE_MEASURE_WITH_UNIT(PLANE_ANGLE_MEASURE(0.0174532925),#1231);
#1231=(
NAMED_UNIT(*)
PLANE_ANGLE_UNIT()
SI_UNIT($,.RADIAN.)
);
#1232=(
LENGTH_UNIT()
NAMED_UNIT(*)
SI_UNIT(.MILLI.,.METRE.)
);
ENDSEC;
END-ISO-10303-21;
